<?xml version="1.0" encoding="UTF-8" standalone="no"?>
<svg
   xmlns:dc="http://purl.org/dc/elements/1.1/"
   xmlns:cc="http://creativecommons.org/ns#"
   xmlns:rdf="http://www.w3.org/1999/02/22-rdf-syntax-ns#"
   xmlns:svg="http://www.w3.org/2000/svg"
   xmlns="http://www.w3.org/2000/svg"
   xmlns:sodipodi="http://sodipodi.sourceforge.net/DTD/sodipodi-0.dtd"
   xmlns:inkscape="http://www.inkscape.org/namespaces/inkscape"
   sodipodi:docname="logotype-white-no-chd.svg"
   inkscape:version="1.0 (4035a4fb49, 2020-05-01)"
   id="svg2547"
   version="1.1"
   viewBox="0 0 55.943619 11.837459"
   height="11.837459mm"
   width="55.943619mm">
  <defs
     id="defs2541">
    <linearGradient
       id="linear-gradient-7"
       x1="-9192.9082"
       y1="-1179.8726"
       x2="-9192.9082"
       gradientUnits="userSpaceOnUse"
       gradientTransform="scale(0.63262383,1.5807182)"
       y2="-1198.8885">
      <stop
         offset="0.284"
         stop-color="#ff5733"
         id="stop151" />
      <stop
         offset="0.435"
         stop-color="#fe6f2b"
         id="stop153" />
      <stop
         offset="0.756"
         stop-color="#fbaf17"
         id="stop155" />
      <stop
         offset="0.999"
         stop-color="#fae407"
         id="stop157" />
    </linearGradient>
    <linearGradient
       id="linear-gradient-8"
       x1="-9637.8477"
       y1="-1143.8003"
       x2="-9656.8643"
       y2="-1143.8003"
       gradientUnits="userSpaceOnUse"
       gradientTransform="scale(0.63261331,1.5807445)">
      <stop
         offset="0.001"
         stop-color="#002b43"
         id="stop160" />
      <stop
         offset="0.239"
         stop-color="#065263"
         id="stop162" />
      <stop
         offset="0.692"
         stop-color="#13999d"
         id="stop164" />
      <stop
         offset="0.904"
         stop-color="#18b5b4"
         id="stop166" />
    </linearGradient>
    <linearGradient
       id="linear-gradient-9"
       x1="-7597.4937"
       x2="-7597.4937"
       y2="-1292.6732"
       gradientUnits="userSpaceOnUse"
       gradientTransform="scale(0.76546927,1.3063882)"
       y1="-1308.3892">
      <stop
         offset="0.017"
         stop-color="#e52000"
         id="stop169" />
      <stop
         offset="0.421"
         stop-color="#e21f01"
         id="stop171" />
      <stop
         offset="0.597"
         stop-color="#db1d06"
         id="stop173" />
      <stop
         offset="0.727"
         stop-color="#cf1a0f"
         id="stop175" />
      <stop
         offset="0.836"
         stop-color="#bd161c"
         id="stop177" />
      <stop
         offset="0.93"
         stop-color="#a6112d"
         id="stop179" />
      <stop
         offset="1"
         stop-color="#900c3e"
         id="stop181" />
    </linearGradient>
    <linearGradient
       id="linear-gradient-10"
       x1="-8641.3125"
       y1="-1283.6616"
       x2="-8663.8047"
       y2="-1283.6616"
       gradientUnits="userSpaceOnUse"
       gradientTransform="scale(0.69096701,1.4472471)">
      <stop
         offset="0"
         stop-color="#900c3e"
         id="stop184" />
      <stop
         offset="0.09"
         stop-color="#9d1742"
         id="stop186" />
      <stop
         offset="0.347"
         stop-color="#bf334b"
         id="stop188" />
      <stop
         offset="0.591"
         stop-color="#d84853"
         id="stop190" />
      <stop
         offset="0.815"
         stop-color="#e65457"
         id="stop192" />
      <stop
         offset="1"
         stop-color="#ec5959"
         id="stop194" />
    </linearGradient>
    <linearGradient
       id="linear-gradient-11"
       y1="-2161.1858"
       x2="-5625.1416"
       y2="-2161.1858"
       gradientUnits="userSpaceOnUse"
       gradientTransform="scale(1.0843165,0.92223995)"
       x1="-5636.6919">
      <stop
         offset="0.006"
         stop-color="#248887"
         id="stop197" />
      <stop
         offset="0.998"
         stop-color="#18b5b4"
         id="stop199" />
    </linearGradient>
    <linearGradient
       id="linear-gradient-12"
       y1="-2876.9333"
       x2="-4002.0293"
       y2="-2876.9333"
       gradientUnits="userSpaceOnUse"
       gradientTransform="scale(1.5196433,0.65804914)"
       x1="-4007.9148">
      <stop
         offset="0.007"
         stop-color="#002b43"
         id="stop202" />
      <stop
         offset="0.43"
         stop-color="#096371"
         id="stop204" />
      <stop
         offset="1"
         stop-color="#18b5b4"
         id="stop206" />
    </linearGradient>
    <linearGradient
       id="linear-gradient-13"
       y1="-1499.6449"
       x2="-7570.5015"
       y2="-1499.6449"
       gradientUnits="userSpaceOnUse"
       gradientTransform="scale(0.80536762,1.241669)"
       x1="-7585.4341">
      <stop
         offset="0"
         stop-color="#248887"
         id="stop209" />
      <stop
         offset="0.182"
         stop-color="#218283"
         id="stop211" />
      <stop
         offset="0.407"
         stop-color="#1c7377"
         id="stop213" />
      <stop
         offset="0.655"
         stop-color="#125a65"
         id="stop215" />
      <stop
         offset="0.918"
         stop-color="#04374c"
         id="stop217" />
      <stop
         offset="1"
         stop-color="#002b43"
         id="stop219" />
    </linearGradient>
  </defs>
  <sodipodi:namedview
     inkscape:window-maximized="0"
     inkscape:window-y="10"
     inkscape:window-x="1116"
     inkscape:window-height="1040"
     inkscape:window-width="1274"
     showgrid="false"
     inkscape:document-rotation="0"
     inkscape:current-layer="layer1"
     inkscape:document-units="mm"
     inkscape:cy="299.51285"
     inkscape:cx="140.00594"
     inkscape:zoom="0.35"
     inkscape:pageshadow="2"
     inkscape:pageopacity="0.0"
     borderopacity="1.0"
     bordercolor="#666666"
     pagecolor="#ffffff"
     id="base" />
  <metadata
     id="metadata2544">
    <rdf:RDF>
      <cc:Work
         rdf:about="">
        <dc:format>image/svg+xml</dc:format>
        <dc:type
           rdf:resource="http://purl.org/dc/dcmitype/StillImage" />
        <dc:title></dc:title>
      </cc:Work>
    </rdf:RDF>
  </metadata>
  <g
     transform="translate(-68.790095,-68.920559)"
     id="layer1"
     inkscape:groupmode="layer"
     inkscape:label="Layer 1">
    <g
       transform="matrix(0.26458333,0,0,0.26458333,68.790096,68.920559)"
       data-name="Group 1708"
       id="Group_1708">
      <g
         transform="translate(24.301,8.652)"
         data-name="Group 1704"
         id="Group_1704">
        <path
           style="fill:url(#linear-gradient-7)"
           fill="url(#linear-gradient-7)"
           transform="translate(5821.663,1895.105)"
           d="m -5811.4,-1869.285 a 6,6 0 0 1 1.762,4.239 v -24.045 a 6.015,6.015 0 0 0 -6.014,-6.014 6.015,6.015 0 0 0 -6.016,6.014 v 9.538 z"
           data-name="Path 638"
           id="Path_638" />
      </g>
      <g
         transform="translate(0.242,14.68)"
         data-name="Group 1705"
         id="Group_1705">
        <path
           style="fill:url(#linear-gradient-8)"
           fill="url(#linear-gradient-8)"
           transform="translate(6109.063,1823.086)"
           d="m -6107.3,-1818.847 a 6,6 0 0 1 -1.761,-4.239 v 24.045 a 6.015,6.015 0 0 0 6.015,6.015 6.015,6.015 0 0 0 6.015,-6.015 v -9.538 z"
           data-name="Path 639"
           id="Path_639" />
      </g>
      <path
         style="fill:url(#linear-gradient-9)"
         fill="url(#linear-gradient-9)"
         transform="translate(5845.963,1733.472)"
         d="m -5809.638,-1694.761 a 6,6 0 0 0 -1.762,-4.239 l -10.263,-10.264 v 14.517 a 6.015,6.015 0 0 0 6.016,6.014 6.015,6.015 0 0 0 6.014,-6.014"
         data-name="Path 640"
         id="Path_640" />
      <g
         transform="translate(10.51,10.414)"
         data-name="Group 1706"
         id="Group_1706">
        <path
           style="fill:url(#linear-gradient-10)"
           fill="url(#linear-gradient-10)"
           transform="translate(5986.402,1874.055)"
           d="m -5970.862,-1841.5 a 5.992,5.992 0 0 1 -1.749,-4.241 v -14.519 0 l -3.553,-3.553 -10.239,-10.238 a 6,6 0 0 1 1.761,4.252 v 14.517 z"
           data-name="Path 641"
           id="Path_641" />
      </g>
      <path
         style="fill:url(#linear-gradient-11)"
         fill="url(#linear-gradient-11)"
         transform="translate(6111.958,1998.458)"
         d="m -6105.695,-1998.458 a 6.262,6.262 0 0 0 -6.263,6.262 6.244,6.244 0 0 0 1.788,4.38 6,6 0 0 1 4.469,-1.99 6,6 0 0 1 4.474,2 6.241,6.241 0 0 0 1.793,-4.385 6.262,6.262 0 0 0 -6.261,-6.267 z"
         data-name="Path 642"
         id="Path_642" />
      <path
         style="fill:url(#linear-gradient-12)"
         fill="url(#linear-gradient-12)"
         transform="translate(6092.389,1903.757)"
         d="m -6086.13,-1895.1 a 6,6 0 0 0 -4.471,1.99 6.246,6.246 0 0 0 4.476,1.883 6.242,6.242 0 0 0 4.468,-1.877 6,6 0 0 0 -4.473,-1.996 z"
         data-name="Path 643"
         id="Path_643" />
      <g
         transform="translate(0.242,10.642)"
         data-name="Group 1707"
         id="Group_1707">
        <path
           fill="#ffffff"
           transform="translate(5994.258,1871.271)"
           d="M -5983.77,-1871.265"
           data-name="Path 644"
           id="Path_644" />
        <path
           style="fill:url(#linear-gradient-13)"
           fill="url(#linear-gradient-13)"
           transform="translate(6109.063,1871.333)"
           d="m -6098.574,-1871.327 a 6.244,6.244 0 0 1 -4.469,1.877 6.244,6.244 0 0 1 -4.475,-1.883 6,6 0 0 0 -1.545,4.025 v 0.014 a 6,6 0 0 0 1.762,4.239 l 10.264,10.263 v -14.517 a 6,6 0 0 0 -1.537,-4.018 z"
           data-name="Path 645"
           id="Path_645" />
        <path
           fill="#ffffff"
           transform="translate(6092.146,1871.335)"
           d="M -6090.6,-1871.335"
           data-name="Path 646"
           id="Path_646" />
      </g>
    </g>
    <g
       transform="matrix(0.26458333,0,0,0.26458333,81.675046,72.670499)"
       data-name="Group 1709"
       id="Group_1709">
      <path
         fill="#ffffff"
         transform="translate(5407.098,1900.35)"
         d="m -5407.1,-1899.9 h 2.39 v 21.181 h -2.39 z"
         data-name="Path 647"
         id="Path_647" />
      <path
         fill="#ffffff"
         transform="translate(5237.498,1800.104)"
         d="m -5228.692,-1794.113 h 2.33 v 2.723 a 5.924,5.924 0 0 1 5.355,-3.056 c 3.782,0 5.991,2.542 5.991,6.264 v 9.713 h -2.33 v -9.138 c 0,-2.9 -1.573,-4.72 -4.327,-4.72 a 4.6,4.6 0 0 0 -4.69,4.9 v 8.957 h -2.33 z"
         data-name="Path 648"
         id="Path_648" />
      <path
         fill="#ffffff"
         transform="translate(4919.841,1793.694)"
         d="m -4894.544,-1787.7 h 2.572 l 5.265,12.981 5.3,-12.981 h 2.511 l -6.808,15.765 h -2.058 z"
         data-name="Path 649"
         id="Path_649" />
      <path
         fill="#ffffff"
         transform="translate(4584.129,1800.104)"
         d="m -4541.4,-1786.246 v -0.061 c 0,-4.509 3.177,-8.14 7.5,-8.14 4.629,0 7.292,3.691 7.292,8.261 a 5.979,5.979 0 0 1 -0.031,0.756 h -12.406 a 5.464,5.464 0 0 0 5.507,5.3 6.473,6.473 0 0 0 4.932,-2.209 l 1.453,1.3 a 8.075,8.075 0 0 1 -6.445,2.935 7.776,7.776 0 0 1 -7.802,-8.142 z m 12.437,-0.908 c -0.242,-2.844 -1.876,-5.325 -4.993,-5.325 -2.724,0 -4.781,2.269 -5.084,5.325 z"
         data-name="Path 650"
         id="Path_650" />
      <path
         fill="#ffffff"
         transform="translate(4233.843,1798.94)"
         d="m -4172.93,-1779.3 1.18,-1.664 a 9.144,9.144 0 0 0 5.416,2 c 1.876,0 3.238,-0.968 3.238,-2.481 v -0.06 c 0,-1.574 -1.846,-2.179 -3.9,-2.754 -2.451,-0.7 -5.175,-1.543 -5.175,-4.418 v -0.061 c 0,-2.693 2.239,-4.478 5.326,-4.478 a 10.7,10.7 0 0 1 5.628,1.725 l -1.059,1.755 a 8.843,8.843 0 0 0 -4.629,-1.513 c -1.846,0 -3.026,0.968 -3.026,2.269 v 0.061 c 0,1.483 1.937,2.058 4.024,2.693 2.421,0.726 5.023,1.664 5.023,4.478 v 0.061 c 0,2.965 -2.451,4.69 -5.568,4.69 a 10.76,10.76 0 0 1 -6.478,-2.303 z"
         data-name="Path 651"
         id="Path_651" />
      <path
         fill="#ffffff"
         transform="translate(3938.928,1884.614)"
         d="m -3860.525,-1867.124 v -9.441 h -2.178 v -2.057 h 2.178 v -4.72 h 2.33 v 4.72 h 4.963 v 2.057 h -4.963 v 9.138 a 2.315,2.315 0 0 0 2.633,2.6 4.9,4.9 0 0 0 2.27,-0.545 v 2 a 5.861,5.861 0 0 1 -2.814,0.666 c -2.512,0 -4.419,-1.241 -4.419,-4.418 z"
         data-name="Path 652"
         id="Path_652" />
      <path
         fill="#ffffff"
         transform="translate(3658.004,1900.35)"
         d="m -3567.194,-1899.9 h 2.239 l 13.344,16.975 v -16.975 h 2.33 v 21.181 h -1.906 l -13.677,-17.369 v 17.369 h -2.33 z"
         data-name="Path 653"
         id="Path_653" />
      <path
         fill="#ffffff"
         transform="translate(3216.209,1797.775)"
         d="m -3102.463,-1780.678 v -0.06 c 0,-3.3 2.723,-5.053 6.687,-5.053 a 16.613,16.613 0 0 1 4.811,0.666 v -0.545 c 0,-2.814 -1.725,-4.266 -4.66,-4.266 a 10.893,10.893 0 0 0 -4.75,1.15 l -0.7,-1.906 a 12.917,12.917 0 0 1 5.688,-1.3 6.864,6.864 0 0 1 5.053,1.725 6.174,6.174 0 0 1 1.6,4.569 v 9.562 h -2.239 v -2.36 a 6.856,6.856 0 0 1 -5.658,2.693 c -2.897,0 -5.832,-1.668 -5.832,-4.875 z m 11.529,-1.21 v -1.513 a 16.322,16.322 0 0 0 -4.6,-0.666 c -2.935,0 -4.569,1.271 -4.569,3.238 v 0.061 c 0,1.967 1.816,3.117 3.934,3.117 2.875,-10e-4 5.235,-1.756 5.235,-4.238 z"
         data-name="Path 654"
         id="Path_654" />
      <path
         fill="#ffffff"
         transform="translate(2843.194,1909.092)"
         d="m -2710.081,-1909.092 h 2.663 v 2.572 h -2.663 z m 0.151,5.991 h 2.33 v 15.644 h -2.33 z"
         data-name="Path 655"
         id="Path_655" />
      <path
         fill="#ffffff"
         transform="translate(2731.878,1909.092)"
         d="m -2592.986,-1882.676 v -1.906 a 7.659,7.659 0 0 0 1.15,0.091 c 1.059,0 1.785,-0.635 1.785,-2.088 v -16.521 h 2.33 v 16.552 c 0,2.754 -1.452,4.024 -3.813,4.024 a 5.786,5.786 0 0 1 -1.452,-0.152 z m 2.784,-26.416 h 2.663 v 2.572 h -2.663 z"
         data-name="Path 656"
         id="Path_656" />
      <path
         fill="#ffffff"
         transform="translate(2537.218,1797.775)"
         d="m -2388.219,-1780.678 v -0.06 c 0,-3.3 2.723,-5.053 6.687,-5.053 a 16.611,16.611 0 0 1 4.811,0.666 v -0.545 c 0,-2.814 -1.725,-4.266 -4.66,-4.266 a 10.893,10.893 0 0 0 -4.751,1.15 l -0.7,-1.906 a 12.918,12.918 0 0 1 5.689,-1.3 6.865,6.865 0 0 1 5.053,1.725 6.175,6.175 0 0 1 1.6,4.569 v 9.562 h -2.239 v -2.36 a 6.856,6.856 0 0 1 -5.658,2.693 c -2.897,0 -5.832,-1.668 -5.832,-4.875 z m 11.529,-1.21 v -1.513 a 16.325,16.325 0 0 0 -4.6,-0.666 c -2.935,0 -4.569,1.271 -4.569,3.238 v 0.061 c 0,1.967 1.816,3.117 3.934,3.117 2.874,-10e-4 5.235,-1.756 5.235,-4.238 z"
         data-name="Path 657"
         id="Path_657" />
    </g>
  </g>
</svg>
