<?xml version="1.0" encoding="UTF-8" standalone="no"?>
<svg
   xmlns:dc="http://purl.org/dc/elements/1.1/"
   xmlns:cc="http://creativecommons.org/ns#"
   xmlns:rdf="http://www.w3.org/1999/02/22-rdf-syntax-ns#"
   xmlns:svg="http://www.w3.org/2000/svg"
   xmlns="http://www.w3.org/2000/svg"
   xmlns:xlink="http://www.w3.org/1999/xlink"
   xmlns:sodipodi="http://sodipodi.sourceforge.net/DTD/sodipodi-0.dtd"
   xmlns:inkscape="http://www.inkscape.org/namespaces/inkscape"
   width="164"
   height="121"
   viewBox="0 0 164 121"
   version="1.1"
   id="svg3949"
   sodipodi:docname="logotype-certtificate.svg"
   inkscape:version="0.92.4 (5da689c313, 2019-01-14)">
  <metadata
     id="metadata3953">
    <rdf:RDF>
      <cc:Work
         rdf:about="">
        <dc:format>image/svg+xml</dc:format>
        <dc:type
           rdf:resource="http://purl.org/dc/dcmitype/StillImage" />
        <dc:title></dc:title>
      </cc:Work>
    </rdf:RDF>
  </metadata>
  <sodipodi:namedview
     pagecolor="#ffffff"
     bordercolor="#666666"
     borderopacity="1"
     objecttolerance="10"
     gridtolerance="10"
     guidetolerance="10"
     inkscape:pageopacity="0"
     inkscape:pageshadow="2"
     inkscape:window-width="1920"
     inkscape:window-height="1017"
     id="namedview3951"
     showgrid="false"
     inkscape:pagecheckerboard="true"
     inkscape:zoom="3.2390053"
     inkscape:cx="169.15935"
     inkscape:cy="62.484285"
     inkscape:window-x="1912"
     inkscape:window-y="-8"
     inkscape:window-maximized="1"
     inkscape:current-layer="Logo-Invets" />
  <desc
     id="desc3912">Created with Lunacy</desc>
  <defs
     id="defs3926">
    <path
       d="M 0,0 H 88.9255 V 24.7893 H 0 Z"
       id="path_1"
       inkscape:connector-curvature="0" />
    <path
       d="M 0,0 H 73.7361 V 18.8932 H 0 Z"
       transform="translate(0.1074762,0.02473619)"
       id="path_2"
       inkscape:connector-curvature="0" />
    <path
       d="M 0,0 H 80.9429 V 4.95255 H 0 Z"
       transform="translate(0.05519101,0.04744828)"
       id="path_3"
       inkscape:connector-curvature="0" />
    <clipPath
       id="mask_1">
      <use
         xlink:href="#path_1"
         id="use3917"
         x="0"
         y="0"
         width="100%"
         height="100%" />
    </clipPath>
    <clipPath
       id="mask_2">
      <use
         xlink:href="#path_2"
         id="use3920"
         x="0"
         y="0"
         width="100%"
         height="100%" />
    </clipPath>
    <clipPath
       id="mask_3">
      <use
         xlink:href="#path_3"
         id="use3923"
         x="0"
         y="0"
         width="100%"
         height="100%" />
    </clipPath>
  </defs>
  <g
     id="Logo-Invets"
     transform="translate(0,52)">
    <path
       d="M 71.9938,-52 C 71.9938,-52 46,-52 46,-25.5419 V -9.4581 C 46,-9.4581 46,17 71.9938,17 H 89.0069 C 89.0069,17 115,17 115,-9.4581 v -16.0838 c 0,0 0,-26.4581 -25.9931,-26.4581 z"
       id="Fill-1"
       inkscape:connector-curvature="0"
       style="fill:#1f5e11;stroke:none" />
    <path
       d="m 81.39607,-36.85607 c -1.87582,0.7629 -3.49493,1.80716 -4.85801,3.13161 -1.36393,1.32529 -2.4508,2.87109 -3.25993,4.63825 C 72.46832,-27.3191 72.04188,-25.4321 72,-23.4245 v 11.8042 c 0,0.8035 0.31979,1.4666 0.95936,1.9875 0.63856,0.5225 1.38394,0.7829 2.23664,0.7829 0.85203,0 1.59809,-0.2903 2.23682,-0.8727 0.63957,-0.5817 0.95936,-1.2747 0.95936,-2.0784 v -11.9854 c 0,-1.1639 0.24416,-2.248 0.7352,-3.2523 0.48935,-1.00342 1.14995,-1.88683 1.98078,-2.6499 0.83101,-0.7629 1.79024,-1.3552 2.87634,-1.77708 1.0869,-0.4217 2.2477,-0.6323 3.484,-0.6323 1.3203,0 2.5457,0.23127 3.6753,0.69298 1.1281,0.46188 2.1093,1.0841 2.9401,1.867 0.8311,0.7829 1.4798,1.6964 1.949,2.7407 0.4683,1.0441 0.7033,2.168 0.7033,3.3728 V 0.2294 c 0,0.8038 0.3089,1.466 0.9266,1.9877 C 98.2805,2.7388 99.0149,3 99.8684,3 100.7205,2.96 101.4548,2.659 102.0734,2.0964 102.6902,1.534 103,0.8518 103,0.0481 v -24.0152 c 0,-2.0075 -0.4264,-3.8745 -1.2783,-5.60166 -0.8527,-1.72548 -1.9816,-3.21144 -3.3874,-4.45689 -1.4058,-1.24377 -3.0468,-2.21811 -4.9218,-2.92101 C 91.5367,-37.648047 89.5778,-38 87.5322,-38 c -2.2166,0 -4.262,0.381871 -6.13613,1.14393"
       id="Fill-3"
       inkscape:connector-curvature="0"
       style="fill:#ffffff;stroke:none" />
    <path
       d="M 68.39607,4.7835 C 66.52025,3.9722 64.90198,2.8618 63.53806,1.4531 62.17413,0.0437 61.08726,-1.6002 60.27813,-3.4795 59.46832,-5.3588 59.04188,-7.3654 59,-9.4996 v -12.55399 c 0,-0.85475 0.31979,-1.5599 0.95936,-2.113823 C 60.59792,-24.723127 61.3433,-25 62.196,-25 c 0.85203,0 1.59809,0.308869 2.23682,0.928214 0.63957,0.618456 0.95936,1.355416 0.95936,2.210166 V -9.1156 c 0,1.2378 0.24416,2.3907 0.7352,3.4587 0.48935,1.0671 1.14995,2.0067 1.98078,2.818 0.83101,0.8114 1.79024,1.4412 2.87634,1.8899 1.0869,0.4486 2.2477,0.6724 3.484,0.6724 1.3203,0 2.5457,-0.2459 3.6753,-0.7369 1.1281,-0.4912 2.1093,-1.1529 2.9401,-1.9855 0.8311,-0.8326 1.4798,-1.8041 1.949,-2.9146 0.4683,-1.1104 0.7033,-2.3056 0.7033,-3.586 v -12.55399 c 0,-0.85475 0.3089,-1.5599 0.9266,-2.113823 C 85.2805,-24.723127 86.0149,-25 86.8684,-25 c 0.8521,0.04165 1.5864,0.361955 2.205,0.960031 C 89.6902,-23.44189 90,-22.71637 90,-21.86162 V -8.9235 c 0,2.1349 -0.4264,4.1204 -1.2783,5.9572 -0.8527,1.835 -1.9816,3.4152 -3.3874,4.7397 C 83.9285,3.0961 82.2875,4.1323 80.4125,4.88 78.5367,5.6259 76.5778,6 74.5322,6 72.3156,6 70.2702,5.5939 68.39607,4.7835"
       id="Fill-5"
       inkscape:connector-curvature="0"
       style="fill:#ffffff;stroke:none" />
    <path
       d="m 62,-28 c 2.76076,0 5,-2.23929 5,-5.0001 C 67,-35.76167 64.76076,-38 62,-38 c -2.76094,0 -5,2.23833 -5,4.9999 0,2.76081 2.23906,5.0001 5,5.0001"
       id="Fill-7"
       inkscape:connector-curvature="0"
       style="fill:#eb7e00;stroke:none" />
    <g
       id="Group-11"
       transform="translate(0,31.07202)">
      <path
         d="M 0,0 H 88.9255 V 24.7893 H 0 Z"
         id="Clip-10"
         inkscape:connector-curvature="0"
         style="fill:none;stroke:none" />
      <g
         clip-path="url(#mask_1)"
         id="g3934">
        <path
           d="m 72.6523,2.07788 c 0,-0.51277 0.1808,-0.98723 0.5426,-1.423563 C 73.5558,0.217986 74.0232,0 74.5979,0 c 0.548,0 1.0032,0.198561 1.3649,0.596403 0.362,0.398021 0.5671,0.891187 0.6181,1.481477 v 3.46331 h 8.6414 c 0.5235,0 0.9598,0.19928 1.3095,0.5964 0.3488,0.39802 0.5237,0.85288 0.5237,1.36655 0,0.51295 -0.1871,0.975 -0.5609,1.38525 -0.3739,0.41043 -0.7989,0.61529 -1.2723,0.61529 h -8.6414 v 5.61852 c 0,0.7444 0.1368,1.4567 0.4111,2.1358 0.2744,0.6802 0.6543,1.2768 1.1408,1.7896 0.4864,0.5136 1.0603,0.9232 1.7215,1.2313 0.6603,0.308 1.365,0.462 2.1135,0.462 0.8475,0 1.5649,-0.1219 2.1509,-0.366 0.5859,-0.2439 1.1036,-0.5831 1.5526,-1.0192 h -0.037 c 0.3738,-0.3598 0.8351,-0.5396 1.3839,-0.5396 0.5235,0 0.985,0.1932 1.384,0.5779 0.3497,0.3338 0.5237,0.7825 0.5237,1.3469 0,0.2056 -0.0313,0.4166 -0.0936,0.6347 -0.0622,0.2182 -0.1809,0.4043 -0.3549,0.5583 h 0.0372 c -0.8732,0.8725 -1.827,1.5394 -2.8621,2.0005 -1.0353,0.4621 -2.1638,0.6927 -3.3852,0.6927 -1.2974,0 -2.5256,-0.2245 -3.6854,-0.6732 -1.1598,-0.4486 -2.1699,-1.0905 -3.0301,-1.9238 -0.8603,-0.8334 -1.5527,-1.834 -2.0764,-3.0021 -0.5237,-1.1671 -0.7989,-2.4687 -0.8231,-3.9058 z M 3.32972,0.634733 C 2.95588,0.237611 2.50651,0.0383301 1.983,0.0383301 1.43414,0.0383301 0.965886,0.237611 0.579986,0.634733 0.193037,1.03275 0,1.50092 0,2.03959 0,2.60398 0.193037,3.08473 0.579986,3.48275 0.965886,3.88078 1.43414,4.07934 1.983,4.07934 c 0.52351,0 0.97288,-0.19856 1.34672,-0.59659 0.37383,-0.39802 0.56093,-0.87877 0.56093,-1.44316 0,-0.53867 -0.1871,-1.00684 -0.56093,-1.404857 z M 10.6246,6.61839 C 9.52709,7.10634 8.57939,7.77306 7.78136,8.61983 6.98333,9.46641 6.34722,10.4547 5.87372,11.5826 5.39934,12.7125 5.15018,13.9178 5.125,15.1999 v 7.5424 c 0,0.5139 0.18779,0.9367 0.5618,1.2705 0.37384,0.3331 0.81009,0.5004 1.30947,0.5004 0.49851,0 0.93477,-0.1862 1.30878,-0.5583 0.3747,-0.3721 0.56162,-0.8146 0.56162,-1.3273 v -7.6583 c 0,-0.7434 0.14286,-1.436 0.43014,-2.0779 0.28658,-0.641 0.67336,-1.2054 1.15979,-1.6933 0.4864,-0.4871 1.0474,-0.8662 1.6835,-1.1351 0.6361,-0.26979 1.3156,-0.40433 2.0391,-0.40433 0.773,0 1.4896,0.14785 2.1509,0.44263 0.6604,0.2955 1.2343,0.6926 1.7207,1.193 0.4863,0.5002 0.8662,1.0843 1.1416,1.7511 0.2735,0.6669 0.4111,1.3852 0.4111,2.1545 v 7.5424 c 0,0.5139 0.1808,0.9367 0.5427,1.2705 0.3609,0.3331 0.7911,0.5004 1.2905,0.5004 0.4985,-0.0257 0.9286,-0.2182 1.2904,-0.5777 0.3619,-0.3588 0.5427,-0.7952 0.5427,-1.3079 v -7.774 c 0,-1.282 -0.2492,-2.475 -0.7478,-3.5789 C 22.0226,10.1723 21.3622,9.22252 20.5391,8.42738 19.7159,7.63242 18.7553,7.01011 17.6586,6.56137 16.5604,6.11263 15.4135,5.88745 14.2165,5.88745 c -1.2974,0 -2.4945,0.24389 -3.5919,0.73094 z m 32.2113,0.09612 c -1.0975,0.52608 -2.0704,1.2187 -2.9177,2.07878 -0.8482,0.85917 -1.5155,1.85971 -2.0019,3.00111 -0.4865,1.1422 -0.7288,2.3282 -0.7288,3.5595 0,1.2829 0.2423,2.5016 0.7288,3.6563 0.4864,1.1538 1.1468,2.1678 1.9828,3.0394 0.8353,0.8726 1.8082,1.559 2.9187,2.0593 1.1096,0.5004 2.2753,0.7247 3.4975,0.6731 0.9227,-0.0258 1.7959,-0.154 2.6192,-0.3846 0.823,-0.2306 1.5579,-0.6162 2.2069,-1.1548 l -0.0372,0.0775 c 0.1992,-0.1799 0.3298,-0.3854 0.3931,-0.616 0.0613,-0.2306 0.0933,-0.4488 0.0933,-0.6545 0,-0.4612 -0.1687,-0.8912 -0.5055,-1.289 -0.3366,-0.3972 -0.7798,-0.6215 -1.3276,-0.6731 -0.399,0 -0.7617,0.1148 -1.0853,0.3463 -0.2744,0.1023 -0.5982,0.2181 -0.9729,0.3464 -0.3738,0.128 -0.8223,0.1922 -1.3467,0.1922 -0.9477,0 -1.9015,-0.2822 -2.8615,-0.8467 -0.9606,-0.5635 -1.802,-1.5133 -2.5256,-2.8481 h 12.57 c 0.5739,0.0259 1.0481,-0.1593 1.4221,-0.5572 0.3738,-0.398 0.5608,-0.8528 0.5608,-1.3665 0,-1.2313 -0.2553,-2.4173 -0.7668,-3.5595 C 54.24,10.653 53.5666,9.65246 52.7314,8.79329 51.8954,7.93321 50.9234,7.24059 49.8138,6.71451 48.7033,6.18915 47.5503,5.92566 46.3526,5.92566 c -1.2472,0 -2.4191,0.26349 -3.5167,0.78885 z m 13.9359,6.98509 c 0.2614,0.6926 0.6232,1.2955 1.0844,1.8083 0.4615,0.5136 0.9972,0.9178 1.609,1.2125 0.6111,0.2946 1.2654,0.4425 1.964,0.4425 h 4.4895 c 0.5989,0 1.0662,0.1406 1.403,0.4228 0.3366,0.2831 0.5045,0.7443 0.5045,1.3853 0,0.5912 -0.1679,1.0462 -0.5045,1.3667 -0.3368,0.3205 -0.8041,0.4808 -1.403,0.4808 h -6.8464 c -0.4993,0.0257 -0.9165,0.2376 -1.2533,0.6347 -0.3366,0.398 -0.5045,0.8404 -0.5045,1.3273 0,0.5139 0.155,0.95 0.4674,1.3088 0.3114,0.3597 0.7166,0.5387 1.2159,0.5387 h 6.9209 c 0.823,0 1.5768,-0.1407 2.2633,-0.423 0.6854,-0.2822 1.2845,-0.6739 1.7959,-1.1743 0.5107,-0.4995 0.9036,-1.0959 1.178,-1.7885 0.2743,-0.6935 0.4119,-1.4495 0.4119,-2.2712 0,-0.7175 -0.1306,-1.4173 -0.3929,-2.0966 -0.2622,-0.6802 -0.617,-1.2766 -1.0662,-1.7894 -0.4494,-0.5129 -0.986,-0.9241 -1.6083,-1.2313 -0.6241,-0.3081 -1.2974,-0.462 -2.021,-0.462 h -4.601 c -0.5989,0 -1.0542,-0.1925 -1.3658,-0.5779 -0.3116,-0.3845 -0.4674,-0.82 -0.4674,-1.3077 0,-0.513 0.1558,-0.9491 0.4674,-1.3089 0.3116,-0.35877 0.7669,-0.53863 1.3658,-0.53863 h 6.996 c 0.4483,0 0.8533,-0.18597 1.2161,-0.55809 0.3609,-0.3714 0.5417,-0.81385 0.5417,-1.32752 0,-0.43615 -0.1679,-0.85288 -0.5046,-1.2509 C 69.791,6.12512 69.3729,5.92566 68.8744,5.92566 H 61.6533 C 60.9055,5.95156 60.2131,6.11793 59.5778,6.42602 58.9417,6.73411 58.386,7.14436 57.9125,7.65731 57.4382,8.17098 57.0643,8.76127 56.79,9.428 c -0.2744,0.6669 -0.4111,1.3595 -0.4111,2.0781 0,0.769 0.1306,1.5009 0.3929,2.1935 z M 35.1675,6.13758 c 0.4985,-0.21727 0.997,-0.23687 1.4964,-0.05791 l -0.038,-0.03813 c 0.4994,0.20557 0.8482,0.55809 1.0481,1.05845 0.1991,0.50036 0.1991,1.00683 0,1.51978 -0.8984,2.41173 -1.815,4.87433 -2.7497,7.38853 -0.9357,2.5142 -1.8523,4.9775 -2.7498,7.3885 -0.1003,0.2055 -0.3056,0.462 -0.6172,0.7701 -0.3125,0.307 -0.6802,0.4611 -1.1044,0.4611 -0.3738,0 -0.7356,-0.0962 -1.0844,-0.2884 -0.3497,-0.1923 -0.5991,-0.5067 -0.7487,-0.9428 L 23.0458,8.61977 C 22.846,8.10682 22.8519,7.60035 23.0649,7.09999 23.2761,6.59963 23.6317,6.24711 24.1311,6.04154 l -0.0379,0.03813 c 0.5235,-0.17896 1.029,-0.15936 1.5154,0.05791 0.4865,0.21817 0.8292,0.58399 1.0292,1.09694 L 26.5997,7.19621 30.3784,17.3552 c 0.2494,-0.6667 0.536,-1.4432 0.8605,-2.3281 0.3236,-0.8848 0.6672,-1.8019 1.029,-2.7519 0.3609,-0.9481 0.7106,-1.866 1.0474,-2.75093 0.3365,-0.88489 0.6291,-1.66133 0.8793,-2.32806 L 34.1192,7.23452 C 34.3193,6.72157 34.6681,6.35575 35.1675,6.13758 Z M 3.89065,22.5884 c 0,0.5912 -0.19304,1.0782 -0.57999,1.4627 -0.38695,0.3846 -0.82915,0.577 -1.32766,0.577 -0.54886,0 -1.017114,-0.1924 -1.403014,-0.577 C 0.193037,23.6666 0,23.1796 0,22.5884 V 8.11948 C 0,7.55581 0.193037,7.08045 0.579986,6.69592 0.965886,6.31121 1.43414,6.11804 1.983,6.11804 c 0.49851,0 0.94071,0.19317 1.32766,0.57788 0.38695,0.38453 0.57999,0.85989 0.57999,1.42356 z M 51.777,13.3917 c -0.025,0 -0.0373,-0.0126 -0.0373,-0.0383 V 13.2759 C 51.1409,12.2503 50.374,11.4098 49.4383,10.7555 48.5037,10.1012 47.4746,9.77441 46.352,9.77441 c -1.1718,0 -2.2253,0.33379 -3.161,1.00069 -0.9356,0.6668 -1.6642,1.4876 -2.1888,2.4624 -0.0502,0.0517 -0.0745,0.1026 -0.0745,0.1542 z"
           id="Fill-9"
           inkscape:connector-curvature="0"
           style="fill:#040201;fill-rule:evenodd;stroke:none" />
      </g>
    </g>
    <g
       id="Group-14"
       transform="translate(90,37)">
      <path
         d="M 0,0 H 73.7361 V 18.8932 H 0 Z"
         transform="translate(0.1074762,0.02473619)"
         id="Clip-13"
         inkscape:connector-curvature="0"
         style="fill:none;stroke:none" />
      <g
         clip-path="url(#mask_2)"
         id="g3939">
        <path
           d="M 5.54154,0.73539 C 4.4356,1.22631 3.48064,1.8971 2.67651,2.74903 1.8715,3.60077 1.2314,4.5942 0.754271,5.72986 0.276443,6.86569 0.0243143,8.07844 0,9.36917 v 7.58863 c 0,0.5168 0.188348,0.9422 0.565043,1.2771 0.377752,0.3361 0.816287,0.5034 1.319667,0.5034 0.50232,0 0.94262,-0.1862 1.31949,-0.5615 0.3767,-0.3736 0.56522,-0.8188 0.56522,-1.3356 V 9.13719 c 0,-0.74878 0.14465,-1.44563 0.43431,-2.09054 C 4.49145,6.40173 4.88224,5.833 5.3724,5.34298 5.86151,4.85296 6.4276,4.47151 7.06859,4.20099 7.70886,3.92956 8.39336,3.79421 9.12261,3.79421 c 0.77877,0 1.50169,0.14874 2.16799,0.44532 0.6655,0.2964 1.2438,0.69685 1.7339,1.20008 0.4902,0.50341 0.8731,1.09024 1.1495,1.76103 0.2764,0.67187 0.4151,1.39369 0.4151,2.16853 v 7.58863 c 0,0.5168 0.1815,0.9422 0.5469,1.2771 0.3637,0.3361 0.7971,0.5034 1.3003,0.5034 0.5025,-0.0249 0.9359,-0.2185 1.3004,-0.5803 0.3637,-0.361 0.5468,-0.8 0.5468,-1.3168 V 9.02084 c 0,-1.29074 -0.252,-2.49099 -0.7543,-3.60077 C 17.0267,4.31029 16.3605,3.3554 15.531,2.55541 14.7017,1.7556 13.7344,1.1295 12.6286,0.677124 11.5227,0.225829 10.367,0 9.16085,0 7.85351,0 6.64731,0.245371 5.54154,0.73539 M 37.0188,18.2932 c -0.3766,0.3744 -0.8048,0.5617 -1.2819,0.5617 -0.1753,0 -0.3707,-0.0127 -0.5836,-0.0386 -0.2144,-0.026 -0.421,-0.0968 -0.6226,-0.2131 -0.2014,-0.1166 -0.3829,-0.2769 -0.546,-0.4837 -0.1639,-0.207 -0.2581,-0.49 -0.2833,-0.8519 -0.1257,0.0519 -0.3524,0.1675 -0.6787,0.3485 -0.327,0.1809 -0.5651,0.309 -0.7159,0.3869 -0.2766,0.1299 -0.5652,0.2453 -0.867,0.3485 -0.3017,0.1038 -0.6165,0.2068 -0.9428,0.3098 -0.628,0.129 -1.3065,0.1936 -2.0355,0.1936 -1.8848,0 -3.5688,-0.5232 -5.0514,-1.5685 -1.4827,-1.0452 -2.5886,-2.3933 -3.3177,-4.0459 -0.2512,-0.567 -0.4466,-1.1672 -0.5844,-1.7994 -0.1378,-0.6325 -0.2067,-1.2846 -0.2067,-1.9554 0,-0.67097 0.0689,-1.31679 0.2067,-1.93564 0.1378,-0.61995 0.3332,-1.22632 0.5844,-1.8202 0.7291,-1.67761 1.835,-3.03276 3.3177,-4.06564 1.4826,-1.031791 3.1666,-1.548591 5.0514,-1.548591 h 0.5276 c 0.1509,0 0.3262,0.01339 0.5277,0.039266 1.1312,0.129019 2.1926,0.464143 3.1859,1.005915 0.9925,0.54286 1.8472,1.23355 2.5632,2.0719 0.7161,0.83926 1.282,1.79415 1.6964,2.86539 0.4151,1.07123 0.6218,2.20074 0.6218,3.3876 v 7.4721 c 0,0.5168 -0.1884,0.9619 -0.5653,1.3354 m -3.6,-10.91776 C 33.13,6.69198 32.7341,6.0981 32.2318,5.59469 31.7286,5.09128 31.1503,4.68468 30.497,4.3747 29.8438,4.06473 29.1521,3.90984 28.4239,3.90984 c -0.729,0 -1.4137,0.14965 -2.0547,0.44605 -0.641,0.2964 -1.2122,0.70318 -1.7147,1.21907 -0.5032,0.5168 -0.8991,1.10978 -1.1879,1.78075 -0.2894,0.6717 -0.4334,1.38103 -0.4334,2.13 0,0.77389 0.1508,1.49669 0.4526,2.16759 0.301,0.6717 0.7092,1.2584 1.2246,1.7618 0.5153,0.5034 1.0936,0.9038 1.7347,1.2002 0.641,0.2975 1.3003,0.4452 1.9788,0.4452 0.7282,0 1.4259,-0.1415 2.0923,-0.4254 0.6655,-0.2839 1.2437,-0.6781 1.7339,-1.1815 0.4901,-0.5034 0.8799,-1.09 1.1687,-1.7617 0.2886,-0.671 0.4334,-1.4064 0.4334,-2.20619 0,-0.72291 -0.1448,-1.42609 -0.4334,-2.11027 m 8.7083,10.89896 c 0.3889,-0.3878 0.5843,-0.8778 0.5843,-1.4717 V 2.24562 c 0,-0.56801 -0.1954,-1.04536 -0.5843,-1.433144 -0.3899,-0.387057 -0.8363,-0.580495 -1.3388,-0.580495 -0.5529,0 -1.0239,0.193438 -1.4138,0.580495 C 38.9848,1.20026 38.7903,1.67761 38.7903,2.24562 V 16.8027 c 0,0.5939 0.1945,1.0839 0.5842,1.4717 0.3899,0.3869 0.8609,0.5805 1.4138,0.5805 0.5025,0 0.9489,-0.1936 1.3388,-0.5805 M 52.6251,0.154895 c 0.477,0 0.8861,0.180953 1.2254,0.541953 0.3392,0.361902 0.5467,0.799992 0.6218,1.315882 v 7.82131 c -0.0254,1.23876 -0.2826,2.40056 -0.7728,3.48446 -0.4901,1.0837 -1.1433,2.0322 -1.9598,2.8456 -0.8171,0.8134 -1.7721,1.4654 -2.8657,1.9554 -1.0929,0.4898 -2.2554,0.7479 -3.4868,0.7737 -0.5023,0 -0.9236,-0.1934 -1.2629,-0.5803 -0.3394,-0.3878 -0.5591,-0.8258 -0.6593,-1.3168 0.0496,-0.4898 0.2572,-0.9225 0.6217,-1.2969 0.3637,-0.3734 0.7982,-0.5741 1.3005,-0.6002 0.7291,0 1.4137,-0.1415 2.0547,-0.4254 0.641,-0.2839 1.2062,-0.678 1.6964,-1.1814 0.4902,-0.5034 0.879,-1.0901 1.1687,-1.7611 0.2886,-0.6707 0.4334,-1.407 0.4334,-2.20703 V 1.85766 C 50.8162,1.3937 51.023,0.993429 51.3622,0.658305 51.7015,0.322457 52.1228,0.154895 52.6251,0.154895 M 73.7361,16.9578 V 9.4857 c 0,-1.18686 -0.2076,-2.31637 -0.6218,-3.3876 C 72.6992,5.02686 72.134,4.07197 71.4171,3.23271 70.7012,2.39436 69.8465,1.70367 68.854,1.16081 67.8614,0.619038 66.7991,0.283914 65.6688,0.154895 65.4675,0.129019 65.2921,0.115629 65.1411,0.115629 h -0.5284 c -1.8847,0 -3.5689,0.5168 -5.0515,1.548591 -1.4827,1.03288 -2.5886,2.38803 -3.3168,4.06564 -0.2519,0.59388 -0.4465,1.20025 -0.5842,1.8202 -0.1387,0.61885 -0.2076,1.26467 -0.2076,1.93564 0,0.6708 0.0689,1.3229 0.2076,1.9554 0.1377,0.6322 0.3323,1.2324 0.5842,1.7994 0.7282,1.6526 1.8341,3.0007 3.3168,4.0459 1.4826,1.0453 3.1668,1.5685 5.0515,1.5685 0.7291,0 1.4076,-0.0646 2.0365,-0.1936 0.3261,-0.103 0.6401,-0.206 0.9419,-0.3098 0.3016,-0.1032 0.5904,-0.2186 0.8668,-0.3485 0.151,-0.0779 0.3899,-0.206 0.717,-0.3869 0.3261,-0.181 0.552,-0.2966 0.6785,-0.3485 0.0244,0.3619 0.1185,0.6449 0.2826,0.8519 0.1631,0.2068 0.3453,0.3671 0.5469,0.4837 0.2005,0.1163 0.408,0.1871 0.6217,0.2131 0.2129,0.0259 0.4081,0.0386 0.5843,0.0386 0.4771,0 0.9045,-0.1873 1.2812,-0.5617 0.3776,-0.3735 0.566,-0.8186 0.566,-1.3354 M 70.0043,9.48571 c 0,0.79979 -0.1457,1.53519 -0.4344,2.20619 -0.2886,0.6717 -0.6785,1.2583 -1.1678,1.7617 -0.4902,0.5034 -1.0692,0.8976 -1.7346,1.1815 -0.6664,0.2839 -1.3632,0.4254 -2.0923,0.4254 -0.6785,0 -1.338,-0.1477 -1.979,-0.4452 -0.6409,-0.2964 -1.2192,-0.6968 -1.7337,-1.2002 -0.5155,-0.5034 -0.9236,-1.0901 -1.2254,-1.7618 -0.3018,-0.6709 -0.4526,-1.3937 -0.4526,-2.16759 0,-0.74897 0.1446,-1.4583 0.4334,-2.13 0.2886,-0.67097 0.6847,-1.26395 1.1879,-1.78075 0.5023,-0.51589 1.0744,-0.92267 1.7154,-1.21907 0.6403,-0.2964 1.3249,-0.44605 2.054,-0.44605 0.7291,0 1.4198,0.15489 2.074,0.46486 0.6531,0.30998 1.2305,0.71658 1.7337,1.21999 0.5025,0.50341 0.8984,1.09729 1.187,1.78075 0.2887,0.68418 0.4344,1.38736 0.4344,2.11027"
           transform="translate(0.1074762,0.02473619)"
           id="Fill-12"
           inkscape:connector-curvature="0"
           style="fill:#1f5e11;stroke:none" />
      </g>
    </g>
    <path
       d="M 132.41506,32.590351 C 132.03164,32.197258 131.57075,32 131.03383,32 c -0.56293,0 -1.04301,0.197258 -1.43898,0.590351 C 129.19798,32.984333 129,33.44775 129,33.98095 c 0,0.55866 0.19798,1.03454 0.59485,1.42852 0.39597,0.39398 0.87605,0.59053 1.43898,0.59053 0.53692,0 0.99781,-0.19655 1.38123,-0.59053 0.38341,-0.39398 0.5753,-0.86986 0.5753,-1.42852 0,-0.5332 -0.19189,-0.996617 -0.5753,-1.390599 m 12.58534,1.276129 c 0,0.50845 -0.1722,0.94641 -0.5176,1.31387 -0.3452,0.36834 -0.774,0.5526 -1.2852,0.5526 -0.538,0 -0.9916,-0.18426 -1.3628,-0.5526 -0.371,-0.36746 -0.5565,-0.80542 -0.5565,-1.31387 0,-0.50775 0.1855,-0.945704 0.5565,-1.31405 C 142.206,32.184084 142.6596,32 143.1976,32 c 0.5112,0 0.94,0.184084 1.2852,0.55243 0.3454,0.368346 0.5176,0.8063 0.5176,1.31405"
       id="Fill-15"
       inkscape:connector-curvature="0"
       style="fill:#eb7e00;stroke:none" />
    <g
       id="Group-19"
       transform="translate(82,64)">
      <path
         d="M 0,0 H 80.9429 V 4.95255 H 0 Z"
         transform="translate(0.05519101,0.04744828)"
         id="Clip-18"
         inkscape:connector-curvature="0"
         style="fill:none;stroke:none" />
      <g
         clip-path="url(#mask_3)"
         id="g3945">
        <path
           d="m 9.70526,2.48948 c 0,1.40742 1.06114,2.46311 2.53094,2.46311 0.5075,0 1.0355,-0.12638 1.4228,-0.37138 V 3.88397 c -0.3804,0.30551 -0.8553,0.48482 -1.3893,0.48482 -1.1555,0 -1.9308,-0.82362 -1.9308,-1.89293 0,-1.06931 0.7753,-1.892929 1.8775,-1.892929 0.5143,0 1.0081,0.179138 1.3696,0.445519 V 0.337931 C 13.2047,0.125517 12.7307,0 12.2225,0 10.7062,0 9.70526,1.12138 9.70526,2.48948 Z M 79.6612,2.07138 78.6052,3.57172 77.55,2.07138 C 77.3293,1.75897 77.1155,1.44052 76.9018,1.12224 l -0.0137,0.00604 c 0.0067,0.28586 0.0137,0.6512 0.0137,1.04293 v 2.70793 h -0.614 V 0.0717241 h 0.614 L 78.6189,2.51603 80.336,0.0717241 h 0.6069 V 4.87914 H 80.3093 V 2.17121 c 0,-0.39173 0.007,-0.75707 0.013,-1.04293 L 80.3093,1.12224 C 80.0956,1.44052 79.8818,1.75897 79.6612,2.07138 Z M 0,4.87914 h 1.28178 c 0.70142,0 1.16938,-0.07931 1.51021,-0.31828 0.35383,-0.245 0.55381,-0.64362 0.55381,-1.10189 0,-0.61776 -0.36059,-0.99 -0.92811,-1.12225 V 2.3231 C 2.8187,2.18397 3.15172,1.85879 3.15172,1.30741 3.15172,0.87569 2.95173,0.543621 2.58506,0.32431 2.25794,0.125517 1.88364,0.0725862 1.29548,0.0725862 H 0 Z m 5.95064,0 H 5.31703 V 2.70793 L 3.45317,0.0725862 H 4.18806 L 5.00969,1.24776 C 5.21661,1.54638 5.43047,1.8519 5.63739,2.16345 H 5.65023 C 5.85021,1.85879 6.058,1.56017 6.27776,1.24086 L 7.09262,0.0725862 H 7.80098 L 5.95064,2.70207 Z m 9.20466,0 H 14.5217 V 0.0725862 h 0.6336 V 2.09776 h 2.6324 V 0.0725862 h 0.6336 V 4.87914 H 17.7877 V 2.66793 h -2.6324 z m 3.8414,0 h 0.6481 l 0.5478,-1.34155 h 2.1773 l 0.541,1.34155 h 0.6807 l -1.997,-4.8065538 h -0.6078 z m 5.1703,0 h 0.6336 V 2.98017 h 0.5012 c 0.6217,0 1.1833,-0.01965 1.6039,-0.27224 0.3873,-0.23121 0.6534,-0.65034 0.6534,-1.19483 0,-0.564997 -0.28,-0.956721 -0.7006,-1.18879 C 26.4377,0.0931035 25.9432,0.0725862 25.429,0.0725862 h -1.262 z m 4.1546,0 h 2.8513 V 4.30897 H 28.9552 V 2.655 h 1.8905 V 2.10466 H 28.9552 V 0.642586 h 2.1575 V 0.0725862 h -2.7911 z m 6.5988,0 H 32.0021 V 0.0725862 h 0.6336 V 4.30897 h 2.2847 z m 2.3516,0 h 0.6346 V 2.66793 h 2.6323 v 2.21121 h 0.6336 V 0.0725862 H 40.5389 V 2.09776 H 37.9066 V 0.0725862 H 37.272 Z m 5.6167,0 H 42.2551 V 0.0725862 h 0.6336 z m 1.0835,0 h 2.9183 V 4.30897 H 44.6059 V 0.0725862 h -0.6337 z m 6.5716,0 H 47.6256 V 0.0725862 h 0.6336 V 4.30897 h 2.2846 z m 2.3525,0 h 1.1676 c 0.8354,0 1.4768,-0.12621 1.9919,-0.48397 0.6138,-0.43172 0.9607,-1.14189 0.9607,-1.93896 0,-0.83724 -0.3873,-1.574658 -1.0809,-1.9919 C 55.447,0.172414 54.8658,0.0725862 54.2244,0.0725862 h -1.3281 z m 4.9093,0 h 2.8513 V 4.30897 H 58.4392 V 2.655 h 1.8905 V 2.10466 H 58.4392 V 0.642586 h 2.1575 V 0.0725862 H 57.8056 Z M 62.1001,2.4631 v 2.41604 h -0.614 V 0.0725862 h 0.6003 L 64.1109,2.74121 c 0.2806,0.36534 0.5614,0.74345 0.8353,1.12241 L 64.959,3.85672 C 64.9531,3.43845 64.9462,2.95379 64.9462,2.48948 V 0.0725862 H 65.56 V 4.87914 H 64.959 L 62.9346,2.21035 C 62.6538,1.84517 62.374,1.46707 62.1001,1.0881 L 62.0864,1.095 c 0.0068,0.4181 0.0137,0.90293 0.0137,1.3681 z m 4.5426,2.41604 h 0.6336 V 2.66793 h 2.6324 v 2.21121 h 0.6336 V 0.0725862 H 69.9087 V 2.09776 H 67.2763 V 0.0725862 h -0.6336 z m 5.1231,0 h -0.6483 l 1.9903,-4.8065538 h 0.6077 L 75.7126,4.87914 H 75.0318 L 74.4909,3.53759 H 72.3136 Z M 0.633604,0.642586 V 2.17121 H 1.58913 c 0.48773,0 0.92898,-0.22621 0.92898,-0.75104 0,-0.29879 -0.13997,-0.491722 -0.34082,-0.611032 C 1.94972,0.675862 1.68973,0.642586 1.20893,0.642586 Z m 24.166996,0 V 2.42983 h 0.5812 c 0.5684,0 0.8894,-0.01966 1.1564,-0.17931 0.2404,-0.14586 0.3873,-0.38483 0.3873,-0.71086 0,-0.35845 -0.1735,-0.604315 -0.4473,-0.744315 C 26.1836,0.649483 25.83,0.642586 25.3757,0.642586 Z m 28.7293,0 V 4.30897 h 0.6345 c 0.5812,0 1.0492,-0.07328 1.4363,-0.31914 0.461,-0.2919 0.7822,-0.83638 0.7822,-1.51397 0,-0.69724 -0.341,-1.21534 -0.7753,-1.501205 C 55.1868,0.696379 54.6726,0.642586 54.1515,0.642586 Z M 21.2813,0.802241 C 21.1335,1.19397 20.974,1.59931 20.8064,2.01155 l -0.3941,0.97638 h 1.737 L 21.7552,1.99103 C 21.6015,1.60621 21.4409,1.19397 21.2942,0.802241 Z M 72.9274,2.01155 c 0.1674,-0.41224 0.328,-0.81758 0.4749,-1.209309 h 0.0128 c 0.1468,0.391729 0.3074,0.803969 0.4611,1.188789 l 0.394,0.9969 h -1.736 z M 0.633604,4.30897 V 2.655 H 1.56935 c 0.72137,0 1.14285,0.28517 1.14285,0.8169 0,0.32586 -0.16061,0.52482 -0.31429,0.63138 C 2.17729,4.25621 1.86994,4.30897 1.32219,4.30897 Z"
           transform="translate(0.05519101,0.04744828)"
           id="Fill-17"
           inkscape:connector-curvature="0"
           style="fill:#88868b;fill-rule:evenodd;stroke:none" />
      </g>
    </g>
  </g>
</svg>
