<?xml version="1.0" encoding="utf-8"?>
<svg width="69px" height="69px" viewBox="0 0 69 69" version="1.1" xmlns:xlink="http://www.w3.org/1999/xlink" xmlns="http://www.w3.org/2000/svg">
  <desc>Created with Lunacy</desc>
  <path d="M25.9938 0C25.9938 0 0 0 0 26.4581L0 42.5419C0 42.5419 0 69 25.9938 69L43.0069 69C43.0069 69 69 69 69 42.5419L69 26.4581C69 26.4581 69 0 43.0069 0L25.9938 0Z" id="Fill-1" fill="#1F5E11" stroke="none" />
  <path d="M9.39607 1.14393C7.52025 1.90683 5.90114 2.95109 4.53806 4.27554C3.17413 5.60083 2.08726 7.14663 1.27813 8.91379C0.46832 10.6809 0.0418809 12.5679 0 14.5755L0 26.3797C0 27.1832 0.319787 27.8463 0.959361 28.3672C1.59792 28.8897 2.3433 29.1501 3.196 29.1501C4.04803 29.1501 4.79409 28.8598 5.43282 28.2774C6.07239 27.6957 6.39218 27.0027 6.39218 26.199L6.39218 14.2136C6.39218 13.0497 6.63634 11.9656 7.12738 10.9613C7.61673 9.95788 8.27733 9.07447 9.10816 8.3114C9.93917 7.5485 10.8984 6.9562 11.9845 6.53432C13.0714 6.11262 14.2322 5.90202 15.4685 5.90202C16.7888 5.90202 18.0142 6.13329 19.1438 6.595C20.2719 7.05688 21.2531 7.6791 22.0839 8.462C22.915 9.2449 23.5637 10.1584 24.0329 11.2027C24.5012 12.2468 24.7362 13.3707 24.7362 14.5755L24.7362 38.2294C24.7362 39.0332 25.0451 39.6954 25.6628 40.2171C26.2805 40.7388 27.0149 41 27.8684 41C28.7205 40.96 29.4548 40.659 30.0734 40.0964C30.6902 39.534 31 38.8518 31 38.0481L31 14.0329C31 12.0254 30.5736 10.1584 29.7217 8.43124C28.869 6.70576 27.7401 5.2198 26.3343 3.97435C24.9285 2.73058 23.2875 1.75624 21.4125 1.05334C19.5367 0.351953 17.5778 0 15.5322 0C13.3156 0 11.2702 0.381871 9.39607 1.14393" transform="translate(26 14)" id="Fill-3" fill="#FFFFFF" stroke="none" />
  <path d="M9.39607 29.7835C7.52025 28.9722 5.90198 27.8618 4.53806 26.4531C3.17413 25.0437 2.08726 23.3998 1.27813 21.5205C0.46832 19.6412 0.0418809 17.6346 0 15.5004L0 2.94641C0 2.09166 0.319787 1.38651 0.959361 0.832587C1.59792 0.276873 2.3433 0 3.196 0C4.04803 0 4.79409 0.308869 5.43282 0.928214C6.07239 1.54667 6.39218 2.28363 6.39218 3.13838L6.39218 15.8844C6.39218 17.1222 6.63634 18.2751 7.12738 19.3431C7.61673 20.4102 8.27733 21.3498 9.10816 22.1611C9.93917 22.9725 10.8984 23.6023 11.9845 24.051C13.0714 24.4996 14.2322 24.7234 15.4685 24.7234C16.7888 24.7234 18.0142 24.4775 19.1438 23.9865C20.2719 23.4953 21.2531 22.8336 22.0839 22.001C22.915 21.1684 23.5637 20.1969 24.0329 19.0864C24.5012 17.976 24.7362 16.7808 24.7362 15.5004L24.7362 2.94641C24.7362 2.09166 25.0451 1.38651 25.6628 0.832587C26.2805 0.276873 27.0149 0 27.8684 0C28.7205 0.0416472 29.4548 0.361955 30.0734 0.960031C30.6902 1.55811 31 2.28363 31 3.13838L31 16.0765C31 18.2114 30.5736 20.1969 29.7217 22.0337C28.869 23.8687 27.7401 25.4489 26.3343 26.7734C24.9285 28.0961 23.2875 29.1323 21.4125 29.88C19.5367 30.6259 17.5778 31 15.5322 31C13.3156 31 11.2702 30.5939 9.39607 29.7835" transform="translate(13 27)" id="Fill-5" fill="#FFFFFF" stroke="none" />
  <path d="M5 10C7.76076 10 10 7.76071 10 4.9999C10 2.23833 7.76076 0 5 0C2.23906 0 0 2.23833 0 4.9999C0 7.76071 2.23906 10 5 10" transform="translate(11 14)" id="Fill-7" fill="#EB7E00" stroke="none" />
</svg>
