<?xml version="1.0" encoding="utf-8"?>
<svg width="248px" height="69px" viewBox="0 0 248 69" version="1.1" xmlns:xlink="http://www.w3.org/1999/xlink" xmlns="http://www.w3.org/2000/svg">
  <desc>Created with Lunacy</desc>
  <defs>
    <path d="M0 0L88.9255 0L88.9255 24.7893L0 24.7893L0 0Z" id="path_1" />
    <path d="M0 0L73.7361 0L73.7361 18.8932L0 18.8932L0 0Z" transform="translate(0.1074762 0.02473619)" id="path_2" />
    <path d="M0 0L80.9429 0L80.9429 4.95255L0 4.95255L0 0Z" transform="translate(0.05519101 0.04744828)" id="path_3" />
    <clipPath id="mask_1">
      <use xlink:href="#path_1" />
    </clipPath>
    <clipPath id="mask_2">
      <use xlink:href="#path_2" />
    </clipPath>
    <clipPath id="mask_3">
      <use xlink:href="#path_3" />
    </clipPath>
  </defs>
  <g id="Logo-Invets">
    <path d="M25.9938 0C25.9938 0 0 0 0 26.4581L0 42.5419C0 42.5419 0 69 25.9938 69L43.0069 69C43.0069 69 69 69 69 42.5419L69 26.4581C69 26.4581 69 0 43.0069 0L25.9938 0Z" id="Fill-1" fill="#1F5E11" stroke="none" />
    <path d="M9.39607 1.14393C7.52025 1.90683 5.90114 2.95109 4.53806 4.27554C3.17413 5.60083 2.08726 7.14663 1.27813 8.91379C0.46832 10.6809 0.0418809 12.5679 0 14.5755L0 26.3797C0 27.1832 0.319787 27.8463 0.959361 28.3672C1.59792 28.8897 2.3433 29.1501 3.196 29.1501C4.04803 29.1501 4.79409 28.8598 5.43282 28.2774C6.07239 27.6957 6.39218 27.0027 6.39218 26.199L6.39218 14.2136C6.39218 13.0497 6.63634 11.9656 7.12738 10.9613C7.61673 9.95788 8.27733 9.07447 9.10816 8.3114C9.93917 7.5485 10.8984 6.9562 11.9845 6.53432C13.0714 6.11262 14.2322 5.90202 15.4685 5.90202C16.7888 5.90202 18.0142 6.13329 19.1438 6.595C20.2719 7.05688 21.2531 7.6791 22.0839 8.462C22.915 9.2449 23.5637 10.1584 24.0329 11.2027C24.5012 12.2468 24.7362 13.3707 24.7362 14.5755L24.7362 38.2294C24.7362 39.0332 25.0451 39.6954 25.6628 40.2171C26.2805 40.7388 27.0149 41 27.8684 41C28.7205 40.96 29.4548 40.659 30.0734 40.0964C30.6902 39.534 31 38.8518 31 38.0481L31 14.0329C31 12.0254 30.5736 10.1584 29.7217 8.43124C28.869 6.70576 27.7401 5.2198 26.3343 3.97435C24.9285 2.73058 23.2875 1.75624 21.4125 1.05334C19.5367 0.351953 17.5778 0 15.5322 0C13.3156 0 11.2702 0.381871 9.39607 1.14393" transform="translate(26 14)" id="Fill-3" fill="#FFFFFF" stroke="none" />
    <path d="M9.39607 29.7835C7.52025 28.9722 5.90198 27.8618 4.53806 26.4531C3.17413 25.0437 2.08726 23.3998 1.27813 21.5205C0.46832 19.6412 0.0418809 17.6346 0 15.5004L0 2.94641C0 2.09166 0.319787 1.38651 0.959361 0.832587C1.59792 0.276873 2.3433 0 3.196 0C4.04803 0 4.79409 0.308869 5.43282 0.928214C6.07239 1.54667 6.39218 2.28363 6.39218 3.13838L6.39218 15.8844C6.39218 17.1222 6.63634 18.2751 7.12738 19.3431C7.61673 20.4102 8.27733 21.3498 9.10816 22.1611C9.93917 22.9725 10.8984 23.6023 11.9845 24.051C13.0714 24.4996 14.2322 24.7234 15.4685 24.7234C16.7888 24.7234 18.0142 24.4775 19.1438 23.9865C20.2719 23.4953 21.2531 22.8336 22.0839 22.001C22.915 21.1684 23.5637 20.1969 24.0329 19.0864C24.5012 17.976 24.7362 16.7808 24.7362 15.5004L24.7362 2.94641C24.7362 2.09166 25.0451 1.38651 25.6628 0.832587C26.2805 0.276873 27.0149 0 27.8684 0C28.7205 0.0416472 29.4548 0.361955 30.0734 0.960031C30.6902 1.55811 31 2.28363 31 3.13838L31 16.0765C31 18.2114 30.5736 20.1969 29.7217 22.0337C28.869 23.8687 27.7401 25.4489 26.3343 26.7734C24.9285 28.0961 23.2875 29.1323 21.4125 29.88C19.5367 30.6259 17.5778 31 15.5322 31C13.3156 31 11.2702 30.5939 9.39607 29.7835" transform="translate(13 27)" id="Fill-5" fill="#FFFFFF" stroke="none" />
    <path d="M5 10C7.76076 10 10 7.76071 10 4.9999C10 2.23833 7.76076 0 5 0C2.23906 0 0 2.23833 0 4.9999C0 7.76071 2.23906 10 5 10" transform="translate(11 14)" id="Fill-7" fill="#EB7E00" stroke="none" />
    <g id="Group-11" transform="translate(84 19.07202)">
      <path d="M0 0L88.9255 0L88.9255 24.7893L0 24.7893L0 0Z" id="Clip-10" fill="none" stroke="none" />
      <g clip-path="url(#mask_1)">
        <path d="M72.6523 2.07788C72.6523 1.56511 72.8331 1.09065 73.1949 0.654317C73.5558 0.217986 74.0232 0 74.5979 0C75.1459 0 75.6011 0.198561 75.9628 0.596403C76.3248 0.994424 76.5299 1.48759 76.5809 2.07788L76.5809 5.54119L85.2223 5.54119C85.7458 5.54119 86.1821 5.74047 86.5318 6.13759C86.8806 6.53561 87.0555 6.99047 87.0555 7.50414C87.0555 8.01709 86.8684 8.47914 86.4946 8.88939C86.1207 9.29982 85.6957 9.50468 85.2223 9.50468L76.5809 9.50468L76.5809 15.1232C76.5809 15.8676 76.7177 16.5799 76.992 17.259C77.2664 17.9392 77.6463 18.5358 78.1328 19.0486C78.6192 19.5622 79.1931 19.9718 79.8543 20.2799C80.5146 20.5879 81.2193 20.7419 81.9678 20.7419C82.8153 20.7419 83.5327 20.62 84.1187 20.3759C84.7046 20.132 85.2223 19.7928 85.6713 19.3567L85.6343 19.3567C86.0081 18.9969 86.4694 18.8171 87.0182 18.8171C87.5417 18.8171 88.0032 19.0103 88.4022 19.395C88.7519 19.7288 88.9259 20.1775 88.9259 20.7419C88.9259 20.9475 88.8946 21.1585 88.8323 21.3766C88.7701 21.5948 88.6514 21.7809 88.4774 21.9349L88.5146 21.9349C87.6414 22.8074 86.6876 23.4743 85.6525 23.9354C84.6172 24.3975 83.4887 24.6281 82.2673 24.6281C80.9699 24.6281 79.7417 24.4036 78.5819 23.9549C77.4221 23.5063 76.412 22.8644 75.5518 22.0311C74.6915 21.1977 73.9991 20.1971 73.4754 19.029C72.9517 17.8619 72.6765 16.5603 72.6523 15.1232L72.6523 2.07788ZM3.32972 0.634733C2.95588 0.237611 2.50651 0.0383301 1.983 0.0383301C1.43414 0.0383301 0.965886 0.237611 0.579986 0.634733C0.193037 1.03275 0 1.50092 0 2.03959C0 2.60398 0.193037 3.08473 0.579986 3.48275C0.965886 3.88078 1.43414 4.07934 1.983 4.07934C2.50651 4.07934 2.95588 3.88078 3.32972 3.48275C3.70355 3.08473 3.89065 2.60398 3.89065 2.03959C3.89065 1.50092 3.70355 1.03275 3.32972 0.634733ZM10.6246 6.61839C9.52709 7.10634 8.57939 7.77306 7.78136 8.61983C6.98333 9.46641 6.34722 10.4547 5.87372 11.5826C5.39934 12.7125 5.15018 13.9178 5.125 15.1999L5.125 22.7423C5.125 23.2562 5.31279 23.679 5.6868 24.0128C6.06064 24.3459 6.49689 24.5132 6.99627 24.5132C7.49478 24.5132 7.93104 24.327 8.30505 23.9549C8.67975 23.5828 8.86667 23.1403 8.86667 22.6276L8.86667 14.9693C8.86667 14.2259 9.00953 13.5333 9.29681 12.8914C9.58339 12.2504 9.97017 11.686 10.4566 11.1981C10.943 10.711 11.504 10.3319 12.1401 10.063C12.7762 9.79321 13.4557 9.65867 14.1792 9.65867C14.9522 9.65867 15.6688 9.80652 16.3301 10.1013C16.9905 10.3968 17.5644 10.7939 18.0508 11.2943C18.5371 11.7945 18.917 12.3786 19.1924 13.0454C19.4659 13.7123 19.6035 14.4306 19.6035 15.1999L19.6035 22.7423C19.6035 23.2562 19.7843 23.679 20.1462 24.0128C20.5071 24.3459 20.9373 24.5132 21.4367 24.5132C21.9352 24.4875 22.3653 24.295 22.7271 23.9355C23.089 23.5767 23.2698 23.1403 23.2698 22.6276L23.2698 14.8536C23.2698 13.5716 23.0206 12.3786 22.522 11.2747C22.0226 10.1723 21.3622 9.22252 20.5391 8.42738C19.7159 7.63242 18.7553 7.01011 17.6586 6.56137C16.5604 6.11263 15.4135 5.88745 14.2165 5.88745C12.9191 5.88745 11.722 6.13134 10.6246 6.61839ZM42.8359 6.71451C41.7384 7.24059 40.7655 7.93321 39.9182 8.79329C39.07 9.65246 38.4027 10.653 37.9163 11.7944C37.4298 12.9366 37.1875 14.1226 37.1875 15.3539C37.1875 16.6368 37.4298 17.8555 37.9163 19.0102C38.4027 20.164 39.0631 21.178 39.8991 22.0496C40.7344 22.9222 41.7073 23.6086 42.8178 24.1089C43.9274 24.6093 45.0931 24.8336 46.3153 24.782C47.238 24.7562 48.1112 24.628 48.9345 24.3974C49.7575 24.1668 50.4924 23.7812 51.1414 23.2426L51.1042 23.3201C51.3034 23.1402 51.434 22.9347 51.4973 22.7041C51.5586 22.4735 51.5906 22.2553 51.5906 22.0496C51.5906 21.5884 51.4219 21.1584 51.0851 20.7606C50.7485 20.3634 50.3053 20.1391 49.7575 20.0875C49.3585 20.0875 48.9958 20.2023 48.6722 20.4338C48.3978 20.5361 48.074 20.6519 47.6993 20.7802C47.3255 20.9082 46.877 20.9724 46.3526 20.9724C45.4049 20.9724 44.4511 20.6902 43.4911 20.1257C42.5305 19.5622 41.6891 18.6124 40.9655 17.2776L53.5355 17.2776C54.1094 17.3035 54.5836 17.1183 54.9576 16.7204C55.3314 16.3224 55.5184 15.8676 55.5184 15.3539C55.5184 14.1226 55.2631 12.9366 54.7516 11.7944C54.24 10.653 53.5666 9.65246 52.7314 8.79329C51.8954 7.93321 50.9234 7.24059 49.8138 6.71451C48.7033 6.18915 47.5503 5.92566 46.3526 5.92566C45.1054 5.92566 43.9335 6.18915 42.8359 6.71451ZM56.7718 13.6996C57.0332 14.3922 57.395 14.9951 57.8562 15.5079C58.3177 16.0215 58.8534 16.4257 59.4652 16.7204C60.0763 17.015 60.7306 17.1629 61.4292 17.1629L65.9187 17.1629C66.5176 17.1629 66.9849 17.3035 67.3217 17.5857C67.6583 17.8688 67.8262 18.33 67.8262 18.971C67.8262 19.5622 67.6583 20.0172 67.3217 20.3377C66.9849 20.6582 66.5176 20.8185 65.9187 20.8185L59.0723 20.8185C58.573 20.8442 58.1558 21.0561 57.819 21.4532C57.4824 21.8512 57.3145 22.2936 57.3145 22.7805C57.3145 23.2944 57.4695 23.7305 57.7819 24.0893C58.0933 24.449 58.4985 24.628 58.9978 24.628L65.9187 24.628C66.7417 24.628 67.4955 24.4873 68.182 24.205C68.8674 23.9228 69.4665 23.5311 69.9779 23.0307C70.4886 22.5312 70.8815 21.9348 71.1559 21.2422C71.4302 20.5487 71.5678 19.7927 71.5678 18.971C71.5678 18.2535 71.4372 17.5537 71.1749 16.8744C70.9127 16.1942 70.5579 15.5978 70.1087 15.085C69.6593 14.5721 69.1227 14.1609 68.5004 13.8537C67.8763 13.5456 67.203 13.3917 66.4794 13.3917L61.8784 13.3917C61.2795 13.3917 60.8242 13.1992 60.5126 12.8138C60.201 12.4293 60.0452 11.9938 60.0452 11.5061C60.0452 10.9931 60.201 10.557 60.5126 10.1972C60.8242 9.83843 61.2795 9.65857 61.8784 9.65857L68.8744 9.65857C69.3227 9.65857 69.7277 9.4726 70.0905 9.10048C70.4514 8.72908 70.6322 8.28663 70.6322 7.77296C70.6322 7.33681 70.4643 6.92008 70.1276 6.52206C69.791 6.12512 69.3729 5.92566 68.8744 5.92566L61.6533 5.92566C60.9055 5.95156 60.2131 6.11793 59.5778 6.42602C58.9417 6.73411 58.386 7.14436 57.9125 7.65731C57.4382 8.17098 57.0643 8.76127 56.79 9.428C56.5156 10.0949 56.3789 10.7875 56.3789 11.5061C56.3789 12.2751 56.5095 13.007 56.7718 13.6996ZM35.1675 6.13758C35.666 5.92031 36.1645 5.90071 36.6639 6.07967L36.6259 6.04154C37.1253 6.24711 37.4741 6.59963 37.674 7.09999C37.8731 7.60035 37.8731 8.10682 37.674 8.61977C36.7756 11.0315 35.859 13.4941 34.9243 16.0083C33.9886 18.5225 33.072 20.9858 32.1745 23.3968C32.0742 23.6023 31.8689 23.8588 31.5573 24.1669C31.2448 24.4739 30.8771 24.628 30.4529 24.628C30.0791 24.628 29.7173 24.5318 29.3685 24.3396C29.0188 24.1473 28.7694 23.8329 28.6198 23.3968L23.0458 8.61977C22.846 8.10682 22.8519 7.60035 23.0649 7.09999C23.2761 6.59963 23.6317 6.24711 24.1311 6.04154L24.0932 6.07967C24.6167 5.90071 25.1222 5.92031 25.6086 6.13758C26.0951 6.35575 26.4378 6.72157 26.6378 7.23452L26.5997 7.19621L30.3784 17.3552C30.6278 16.6885 30.9144 15.912 31.2389 15.0271C31.5625 14.1423 31.9061 13.2252 32.2679 12.2752C32.6288 11.3271 32.9785 10.4092 33.3153 9.52427C33.6518 8.63938 33.9444 7.86294 34.1946 7.19621L34.1192 7.23452C34.3193 6.72157 34.6681 6.35575 35.1675 6.13758ZM3.89065 22.5884C3.89065 23.1796 3.69761 23.6666 3.31066 24.0511C2.92371 24.4357 2.48151 24.6281 1.983 24.6281C1.43414 24.6281 0.965886 24.4357 0.579986 24.0511C0.193037 23.6666 0 23.1796 0 22.5884L0 8.11948C0 7.55581 0.193037 7.08045 0.579986 6.69592C0.965886 6.31121 1.43414 6.11804 1.983 6.11804C2.48151 6.11804 2.92371 6.31121 3.31066 6.69592C3.69761 7.08045 3.89065 7.55581 3.89065 8.11948L3.89065 22.5884ZM51.777 13.3917C51.752 13.3917 51.7397 13.3791 51.7397 13.3534L51.7397 13.2759C51.1409 12.2503 50.374 11.4098 49.4383 10.7555C48.5037 10.1012 47.4746 9.77441 46.352 9.77441C45.1802 9.77441 44.1267 10.1082 43.191 10.7751C42.2554 11.4419 41.5268 12.2627 41.0022 13.2375C40.952 13.2892 40.9277 13.3401 40.9277 13.3917L51.777 13.3917Z" id="Fill-9" fill="#040201" fill-rule="evenodd" stroke="none" />
      </g>
    </g>
    <g id="Group-14" transform="translate(174 25)">
      <path d="M0 0L73.7361 0L73.7361 18.8932L0 18.8932L0 0Z" transform="translate(0.1074762 0.02473619)" id="Clip-13" fill="none" stroke="none" />
      <g clip-path="url(#mask_2)">
        <path d="M5.54154 0.73539C4.4356 1.22631 3.48064 1.8971 2.67651 2.74903C1.8715 3.60077 1.2314 4.5942 0.754271 5.72986C0.276443 6.86569 0.0243143 8.07844 0 9.36917L0 16.9578C0 17.4746 0.188348 17.9 0.565043 18.2349C0.942795 18.571 1.38133 18.7383 1.88471 18.7383C2.38703 18.7383 2.82733 18.5521 3.2042 18.1768C3.5809 17.8032 3.76942 17.358 3.76942 16.8412L3.76942 9.13719C3.76942 8.38841 3.91407 7.69156 4.20373 7.04665C4.49145 6.40173 4.88224 5.833 5.3724 5.34298C5.86151 4.85296 6.4276 4.47151 7.06859 4.20099C7.70886 3.92956 8.39336 3.79421 9.12261 3.79421C9.90138 3.79421 10.6243 3.94295 11.2906 4.23953C11.9561 4.53593 12.5344 4.93638 13.0245 5.43961C13.5147 5.94302 13.8976 6.52985 14.174 7.20064C14.4504 7.87251 14.5891 8.59433 14.5891 9.36917L14.5891 16.9578C14.5891 17.4746 14.7706 17.9 15.136 18.2349C15.4997 18.571 15.9331 18.7383 16.4363 18.7383C16.9388 18.7134 17.3722 18.5198 17.7367 18.158C18.1004 17.797 18.2835 17.358 18.2835 16.8412L18.2835 9.02084C18.2835 7.7301 18.0315 6.52985 17.5292 5.42007C17.0267 4.31029 16.3605 3.3554 15.531 2.55541C14.7017 1.7556 13.7344 1.1295 12.6286 0.677124C11.5227 0.225829 10.367 0 9.16085 0C7.85351 0 6.64731 0.245371 5.54154 0.73539M37.0188 18.2932C36.6422 18.6676 36.214 18.8549 35.7369 18.8549C35.5616 18.8549 35.3662 18.8422 35.1533 18.8163C34.9389 18.7903 34.7323 18.7195 34.5307 18.6032C34.3293 18.4866 34.1478 18.3263 33.9847 18.1195C33.8208 17.9125 33.7266 17.6295 33.7014 17.2676C33.5757 17.3195 33.349 17.4351 33.0227 17.6161C32.6957 17.797 32.4576 17.9251 32.3068 18.003C32.0302 18.1329 31.7416 18.2483 31.4398 18.3515C31.1381 18.4553 30.8233 18.5583 30.497 18.6613C29.869 18.7903 29.1905 18.8549 28.4615 18.8549C26.5767 18.8549 24.8927 18.3317 23.4101 17.2864C21.9274 16.2412 20.8215 14.8931 20.0924 13.2405C19.8412 12.6735 19.6458 12.0733 19.508 11.4411C19.3702 10.8086 19.3013 10.1565 19.3013 9.4857C19.3013 8.81473 19.3702 8.16891 19.508 7.55006C19.6458 6.93011 19.8412 6.32374 20.0924 5.72986C20.8215 4.05225 21.9274 2.6971 23.4101 1.66422C24.8927 0.632429 26.5767 0.115629 28.4615 0.115629L28.9891 0.115629C29.14 0.115629 29.3153 0.129019 29.5168 0.154895C30.648 0.283914 31.7094 0.619038 32.7027 1.16081C33.6952 1.70367 34.5499 2.39436 35.2659 3.23271C35.982 4.07197 36.5479 5.02686 36.9623 6.0981C37.3774 7.16933 37.5841 8.29884 37.5841 9.4857L37.5841 16.9578C37.5841 17.4746 37.3957 17.9197 37.0188 18.2932M33.4188 7.37544C33.13 6.69198 32.7341 6.0981 32.2318 5.59469C31.7286 5.09128 31.1503 4.68468 30.497 4.3747C29.8438 4.06473 29.1521 3.90984 28.4239 3.90984C27.6949 3.90984 27.0102 4.05949 26.3692 4.35589C25.7282 4.65229 25.157 5.05907 24.6545 5.57496C24.1513 6.09176 23.7554 6.68474 23.4666 7.35571C23.1772 8.02741 23.0332 8.73674 23.0332 9.48571C23.0332 10.2596 23.184 10.9824 23.4858 11.6533C23.7868 12.325 24.195 12.9117 24.7104 13.4151C25.2257 13.9185 25.804 14.3189 26.4451 14.6153C27.0861 14.9128 27.7454 15.0605 28.4239 15.0605C29.1521 15.0605 29.8498 14.919 30.5162 14.6351C31.1817 14.3512 31.7599 13.957 32.2501 13.4536C32.7402 12.9502 33.13 12.3636 33.4188 11.6919C33.7074 11.0209 33.8522 10.2855 33.8522 9.48571C33.8522 8.7628 33.7074 8.05962 33.4188 7.37544M42.1271 18.2744C42.516 17.8866 42.7114 17.3966 42.7114 16.8027L42.7114 2.24562C42.7114 1.67761 42.516 1.20026 42.1271 0.812476C41.7372 0.425419 41.2908 0.231981 40.7883 0.231981C40.2354 0.231981 39.7644 0.425419 39.3745 0.812476C38.9848 1.20026 38.7903 1.67761 38.7903 2.24562L38.7903 16.8027C38.7903 17.3966 38.9848 17.8866 39.3745 18.2744C39.7644 18.6613 40.2354 18.8549 40.7883 18.8549C41.2908 18.8549 41.7372 18.6613 42.1271 18.2744M52.6251 0.154895C53.1021 0.154895 53.5112 0.335848 53.8505 0.696848C54.1897 1.05875 54.3972 1.49684 54.4723 2.01273L54.4723 9.83404C54.4469 11.0728 54.1897 12.2346 53.6995 13.3185C53.2094 14.4022 52.5562 15.3507 51.7397 16.1641C50.9226 16.9775 49.9676 17.6295 48.874 18.1195C47.7811 18.6093 46.6186 18.8674 45.3872 18.8932C44.8849 18.8932 44.4636 18.6998 44.1243 18.3129C43.7849 17.9251 43.5652 17.4871 43.465 16.9961C43.5146 16.5063 43.7222 16.0736 44.0867 15.6992C44.4504 15.3258 44.8849 15.1251 45.3872 15.099C46.1163 15.099 46.8009 14.9575 47.4419 14.6736C48.0829 14.3897 48.6481 13.9956 49.1383 13.4922C49.6285 12.9888 50.0173 12.4021 50.307 11.7311C50.5956 11.0604 50.7404 10.3241 50.7404 9.52407L50.7404 1.85766C50.8162 1.3937 51.023 0.993429 51.3622 0.658305C51.7015 0.322457 52.1228 0.154895 52.6251 0.154895M73.7361 16.9578L73.7361 9.4857C73.7361 8.29884 73.5285 7.16933 73.1143 6.0981C72.6992 5.02686 72.134 4.07197 71.4171 3.23271C70.7012 2.39436 69.8465 1.70367 68.854 1.16081C67.8614 0.619038 66.7991 0.283914 65.6688 0.154895C65.4675 0.129019 65.2921 0.115629 65.1411 0.115629L64.6127 0.115629C62.728 0.115629 61.0438 0.632429 59.5612 1.66422C58.0785 2.6971 56.9726 4.05225 56.2444 5.72986C55.9925 6.32374 55.7979 6.93011 55.6602 7.55006C55.5215 8.16891 55.4526 8.81473 55.4526 9.4857C55.4526 10.1565 55.5215 10.8086 55.6602 11.4411C55.7979 12.0733 55.9925 12.6735 56.2444 13.2405C56.9726 14.8931 58.0785 16.2412 59.5612 17.2864C61.0438 18.3317 62.728 18.8549 64.6127 18.8549C65.3418 18.8549 66.0203 18.7903 66.6492 18.6613C66.9753 18.5583 67.2893 18.4553 67.5911 18.3515C67.8927 18.2483 68.1815 18.1329 68.4579 18.003C68.6089 17.9251 68.8478 17.797 69.1749 17.6161C69.501 17.4351 69.7269 17.3195 69.8534 17.2676C69.8778 17.6295 69.9719 17.9125 70.136 18.1195C70.2991 18.3263 70.4813 18.4866 70.6829 18.6032C70.8834 18.7195 71.0909 18.7903 71.3046 18.8163C71.5175 18.8422 71.7127 18.8549 71.8889 18.8549C72.366 18.8549 72.7934 18.6676 73.1701 18.2932C73.5477 17.9197 73.7361 17.4746 73.7361 16.9578M70.0043 9.48571C70.0043 10.2855 69.8586 11.0209 69.5699 11.6919C69.2813 12.3636 68.8914 12.9502 68.4021 13.4536C67.9119 13.957 67.3329 14.3512 66.6675 14.6351C66.0011 14.919 65.3043 15.0605 64.5752 15.0605C63.8967 15.0605 63.2372 14.9128 62.5962 14.6153C61.9553 14.3189 61.377 13.9185 60.8625 13.4151C60.347 12.9117 59.9389 12.325 59.6371 11.6533C59.3353 10.9824 59.1845 10.2596 59.1845 9.48571C59.1845 8.73674 59.3291 8.02741 59.6179 7.35571C59.9065 6.68474 60.3026 6.09176 60.8058 5.57496C61.3081 5.05907 61.8802 4.65229 62.5212 4.35589C63.1615 4.05949 63.8461 3.90984 64.5752 3.90984C65.3043 3.90984 65.995 4.06473 66.6492 4.3747C67.3023 4.68468 67.8797 5.09128 68.3829 5.59469C68.8854 6.0981 69.2813 6.69198 69.5699 7.37544C69.8586 8.05962 70.0043 8.7628 70.0043 9.48571" transform="translate(0.1074762 0.02473619)" id="Fill-12" fill="#1F5E11" stroke="none" />
      </g>
    </g>
    <path d="M3.41506 0.590351C3.03164 0.197258 2.57075 0 2.03383 0C1.4709 0 0.99082 0.197258 0.594851 0.590351C0.197985 0.984333 0 1.44775 0 1.98095C0 2.53961 0.197985 3.01549 0.594851 3.40947C0.99082 3.80345 1.4709 4 2.03383 4C2.57075 4 3.03164 3.80345 3.41506 3.40947C3.79847 3.01549 3.99036 2.53961 3.99036 1.98095C3.99036 1.44775 3.79847 0.984333 3.41506 0.590351M16.0004 1.86648C16.0004 2.37493 15.8282 2.81289 15.4828 3.18035C15.1376 3.54869 14.7088 3.73295 14.1976 3.73295C13.6596 3.73295 13.206 3.54869 12.8348 3.18035C12.4638 2.81289 12.2783 2.37493 12.2783 1.86648C12.2783 1.35873 12.4638 0.920776 12.8348 0.55243C13.206 0.184084 13.6596 0 14.1976 0C14.7088 0 15.1376 0.184084 15.4828 0.55243C15.8282 0.920776 16.0004 1.35873 16.0004 1.86648" transform="translate(213 20)" id="Fill-15" fill="#EB7E00" stroke="none" />
    <g id="Group-19" transform="translate(166 52)">
      <path d="M0 0L80.9429 0L80.9429 4.95255L0 4.95255L0 0Z" transform="translate(0.05519101 0.04744828)" id="Clip-18" fill="none" stroke="none" />
      <g clip-path="url(#mask_3)">
        <path d="M9.70526 2.48948C9.70526 3.8969 10.7664 4.95259 12.2362 4.95259C12.7437 4.95259 13.2717 4.82621 13.659 4.58121L13.659 3.88397C13.2786 4.18948 12.8037 4.36879 12.2697 4.36879C11.1142 4.36879 10.3389 3.54517 10.3389 2.47586C10.3389 1.40655 11.1142 0.582931 12.2164 0.582931C12.7307 0.582931 13.2245 0.762069 13.586 1.02845L13.586 0.337931C13.2047 0.125517 12.7307 0 12.2225 0C10.7062 0 9.70526 1.12138 9.70526 2.48948ZM79.6612 2.07138L78.6052 3.57172L77.55 2.07138C77.3293 1.75897 77.1155 1.44052 76.9018 1.12224L76.8881 1.12828C76.8948 1.41414 76.9018 1.77948 76.9018 2.17121L76.9018 4.87914L76.2878 4.87914L76.2878 0.0717241L76.9018 0.0717241L78.6189 2.51603L80.336 0.0717241L80.9429 0.0717241L80.9429 4.87914L80.3093 4.87914L80.3093 2.17121C80.3093 1.77948 80.3163 1.41414 80.3223 1.12828L80.3093 1.12224C80.0956 1.44052 79.8818 1.75897 79.6612 2.07138ZM0 4.87914L1.28178 4.87914C1.9832 4.87914 2.45116 4.79983 2.79199 4.56086C3.14582 4.31586 3.3458 3.91724 3.3458 3.45897C3.3458 2.84121 2.98521 2.46897 2.41769 2.33672L2.41769 2.3231C2.8187 2.18397 3.15172 1.85879 3.15172 1.30741C3.15172 0.87569 2.95173 0.543621 2.58506 0.32431C2.25794 0.125517 1.88364 0.0725862 1.29548 0.0725862L0 0.0725862L0 4.87914ZM5.95064 4.87914L5.31703 4.87914L5.31703 2.70793L3.45317 0.0725862L4.18806 0.0725862L5.00969 1.24776C5.21661 1.54638 5.43047 1.8519 5.63739 2.16345L5.65023 2.16345C5.85021 1.85879 6.058 1.56017 6.27776 1.24086L7.09262 0.0725862L7.80098 0.0725862L5.95064 2.70207L5.95064 4.87914ZM15.1553 4.87914L14.5217 4.87914L14.5217 0.0725862L15.1553 0.0725862L15.1553 2.09776L17.7877 2.09776L17.7877 0.0725862L18.4213 0.0725862L18.4213 4.87914L17.7877 4.87914L17.7877 2.66793L15.1553 2.66793L15.1553 4.87914ZM18.9967 4.87914L19.6448 4.87914L20.1926 3.53759L22.3699 3.53759L22.9109 4.87914L23.5916 4.87914L21.5946 0.0725862L20.9868 0.0725862L18.9967 4.87914ZM24.167 4.87914L24.8006 4.87914L24.8006 2.98017L25.3018 2.98017C25.9235 2.98017 26.4851 2.96052 26.9057 2.70793C27.293 2.47672 27.5591 2.05759 27.5591 1.5131C27.5591 0.948103 27.2791 0.556379 26.8585 0.32431C26.4377 0.0931035 25.9432 0.0725862 25.429 0.0725862L24.167 0.0725862L24.167 4.87914ZM28.3216 4.87914L31.1729 4.87914L31.1729 4.30897L28.9552 4.30897L28.9552 2.655L30.8457 2.655L30.8457 2.10466L28.9552 2.10466L28.9552 0.642586L31.1127 0.642586L31.1127 0.0725862L28.3216 0.0725862L28.3216 4.87914ZM34.9204 4.87914L32.0021 4.87914L32.0021 0.0725862L32.6357 0.0725862L32.6357 4.30897L34.9204 4.30897L34.9204 4.87914ZM37.272 4.87914L37.9066 4.87914L37.9066 2.66793L40.5389 2.66793L40.5389 4.87914L41.1725 4.87914L41.1725 0.0725862L40.5389 0.0725862L40.5389 2.09776L37.9066 2.09776L37.9066 0.0725862L37.272 0.0725862L37.272 4.87914ZM42.8887 4.87914L42.2551 4.87914L42.2551 0.0725862L42.8887 0.0725862L42.8887 4.87914ZM43.9722 4.87914L46.8905 4.87914L46.8905 4.30897L44.6059 4.30897L44.6059 0.0725862L43.9722 0.0725862L43.9722 4.87914ZM50.5438 4.87914L47.6256 4.87914L47.6256 0.0725862L48.2592 0.0725862L48.2592 4.30897L50.5438 4.30897L50.5438 4.87914ZM52.8963 4.87914L54.0639 4.87914C54.8993 4.87914 55.5407 4.75293 56.0558 4.39517C56.6696 3.96345 57.0165 3.25328 57.0165 2.45621C57.0165 1.61897 56.6292 0.881552 55.9356 0.46431C55.447 0.172414 54.8658 0.0725862 54.2244 0.0725862L52.8963 0.0725862L52.8963 4.87914ZM57.8056 4.87914L60.6569 4.87914L60.6569 4.30897L58.4392 4.30897L58.4392 2.655L60.3297 2.655L60.3297 2.10466L58.4392 2.10466L58.4392 0.642586L60.5967 0.642586L60.5967 0.0725862L57.8056 0.0725862L57.8056 4.87914ZM62.1001 2.4631L62.1001 4.87914L61.4861 4.87914L61.4861 0.0725862L62.0864 0.0725862L64.1109 2.74121C64.3915 3.10655 64.6723 3.48466 64.9462 3.86362L64.959 3.85672C64.9531 3.43845 64.9462 2.95379 64.9462 2.48948L64.9462 0.0725862L65.56 0.0725862L65.56 4.87914L64.959 4.87914L62.9346 2.21035C62.6538 1.84517 62.374 1.46707 62.1001 1.0881L62.0864 1.095C62.0932 1.5131 62.1001 1.99793 62.1001 2.4631ZM66.6427 4.87914L67.2763 4.87914L67.2763 2.66793L69.9087 2.66793L69.9087 4.87914L70.5423 4.87914L70.5423 0.0725862L69.9087 0.0725862L69.9087 2.09776L67.2763 2.09776L67.2763 0.0725862L66.6427 0.0725862L66.6427 4.87914ZM71.7658 4.87914L71.1175 4.87914L73.1078 0.0725862L73.7155 0.0725862L75.7126 4.87914L75.0318 4.87914L74.4909 3.53759L72.3136 3.53759L71.7658 4.87914ZM0.633604 0.642586L0.633604 2.17121L1.58913 2.17121C2.07686 2.17121 2.51811 1.945 2.51811 1.42017C2.51811 1.12138 2.37814 0.928448 2.17729 0.809138C1.94972 0.675862 1.68973 0.642586 1.20893 0.642586L0.633604 0.642586ZM24.8006 0.642586L24.8006 2.42983L25.3818 2.42983C25.9502 2.42983 26.2712 2.41017 26.5382 2.25052C26.7786 2.10466 26.9255 1.86569 26.9255 1.53966C26.9255 1.18121 26.752 0.935345 26.4782 0.795345C26.1836 0.649483 25.83 0.642586 25.3757 0.642586L24.8006 0.642586ZM53.5299 0.642586L53.5299 4.30897L54.1644 4.30897C54.7456 4.30897 55.2136 4.23569 55.6007 3.98983C56.0617 3.69793 56.3829 3.15345 56.3829 2.47586C56.3829 1.77862 56.0419 1.26052 55.6076 0.974655C55.1868 0.696379 54.6726 0.642586 54.1515 0.642586L53.5299 0.642586ZM21.2813 0.802241C21.1335 1.19397 20.974 1.59931 20.8064 2.01155L20.4123 2.98793L22.1493 2.98793L21.7552 1.99103C21.6015 1.60621 21.4409 1.19397 21.2942 0.802241L21.2813 0.802241ZM72.9274 2.01155C73.0948 1.59931 73.2554 1.19397 73.4023 0.802241L73.4151 0.802241C73.5619 1.19397 73.7225 1.60621 73.8762 1.99103L74.2702 2.98793L72.5342 2.98793L72.9274 2.01155ZM0.633604 4.30897L0.633604 2.655L1.56935 2.655C2.29072 2.655 2.7122 2.94017 2.7122 3.4719C2.7122 3.79776 2.55159 3.99672 2.39791 4.10328C2.17729 4.25621 1.86994 4.30897 1.32219 4.30897L0.633604 4.30897Z" transform="translate(0.05519101 0.04744828)" id="Fill-17" fill="#88868B" fill-rule="evenodd" stroke="none" />
      </g>
    </g>
  </g>
</svg>
