<?xml version="1.0" encoding="UTF-8" standalone="no"?>
<!DOCTYPE svg PUBLIC "-//W3C//DTD SVG 1.1//EN" "http://www.w3.org/Graphics/SVG/1.1/DTD/svg11.dtd">
<svg width="100%" height="100%" viewBox="0 0 69 69" version="1.1" xmlns="http://www.w3.org/2000/svg" xmlns:xlink="http://www.w3.org/1999/xlink" xml:space="preserve" xmlns:serif="http://www.serif.com/" style="fill-rule:evenodd;clip-rule:evenodd;stroke-linejoin:round;stroke-miterlimit:2;">
    <path id="invest_naija_inner_loggo" d="M22.396,56.784C20.52,55.972 18.902,54.862 17.538,53.453C16.174,52.044 15.087,50.4 14.278,48.521C13.468,46.641 13.042,44.635 13,42.5L13,29.946C13,29.092 13.32,28.387 13.959,27.833C14.598,27.277 15.343,27 16.196,27C17.048,27 17.794,27.309 18.433,27.928C19.072,28.547 19.392,29.284 19.392,30.138L19.392,42.884C19.392,44.122 19.636,45.275 20.127,46.343C20.617,47.41 21.277,48.35 22.108,49.161C22.939,49.972 23.898,50.602 24.985,51.051C26.071,51.5 27.232,51.723 28.469,51.723C29.789,51.723 31.014,51.478 32.144,50.987C33.272,50.495 34.253,49.834 35.084,49.001C35.915,48.168 36.564,47.197 37.033,46.086C37.501,44.976 37.736,43.781 37.736,42.5L37.736,29.946C37.736,29.092 38.045,28.387 38.663,27.833C39.281,27.277 40.015,27 40.868,27C41.721,27.042 42.455,27.362 43.073,27.96C43.69,28.558 44,29.284 44,30.138L44,43.076C44,45.211 43.574,47.197 42.722,49.034C41.869,50.869 40.74,52.449 39.334,53.773C37.929,55.096 36.288,56.132 34.413,56.88C32.537,57.626 30.578,58 28.532,58C26.316,58 24.27,57.594 22.396,56.784ZM35.396,15.144C33.52,15.907 31.901,16.951 30.538,18.276C29.174,19.601 28.087,21.147 27.278,22.914C26.468,24.681 26.042,26.568 26,28.575L26,40.38C26,41.183 26.32,41.846 26.959,42.367C27.598,42.89 28.343,43.15 29.196,43.15C30.048,43.15 30.794,42.86 31.433,42.277C32.072,41.696 32.392,41.003 32.392,40.199L32.392,28.214C32.392,27.05 32.636,25.966 33.127,24.961C33.617,23.958 34.277,23.074 35.108,22.311C35.939,21.549 36.898,20.956 37.984,20.534C39.071,20.113 40.232,19.902 41.469,19.902C42.789,19.902 44.014,20.133 45.144,20.595C46.272,21.057 47.253,21.679 48.084,22.462C48.915,23.245 49.564,24.158 50.033,25.203C50.501,26.247 50.736,27.371 50.736,28.575L50.736,52.229C50.736,53.033 51.045,53.695 51.663,54.217C52.281,54.739 53.015,55 53.868,55C54.721,54.96 55.455,54.659 56.073,54.096C56.69,53.534 57,52.852 57,52.048L57,28.033C57,26.025 56.574,24.158 55.722,22.431C54.869,20.706 53.74,19.22 52.334,17.974C50.929,16.731 49.288,15.756 47.413,15.053C45.537,14.352 43.578,14 41.532,14C39.316,14 37.27,14.382 35.396,15.144ZM16,24C18.761,24 21,21.761 21,19C21,16.238 18.761,14 16,14C13.239,14 11,16.238 11,19C11,21.761 13.239,24 16,24Z" style="fill:white;"/>
</svg>
