<?xml version="1.0" encoding="UTF-8" standalone="no"?>
<!DOCTYPE svg PUBLIC "-//W3C//DTD SVG 1.1//EN" "http://www.w3.org/Graphics/SVG/1.1/DTD/svg11.dtd">
<svg width="100%" height="100%" viewBox="0 0 200 200" version="1.1" xmlns="http://www.w3.org/2000/svg" xmlns:xlink="http://www.w3.org/1999/xlink" xml:space="preserve" xmlns:serif="http://www.serif.com/" style="fill-rule:evenodd;clip-rule:evenodd;stroke-linejoin:round;stroke-miterlimit:1.41421;">
    <g id="Group" transform="matrix(1.3245,0,0,1.3245,0,5.29819)">
        <g id="Path-Copy-7" transform="matrix(1,0,0,1,48,0)">
            <path d="M31.199,3.997C25.19,6.507 19.711,10.216 15.071,14.916C10.526,19.555 6.856,25.039 4.25,31.084C1.548,37.291 0.101,44.011 0.001,50.825L0.001,91.983C-0.031,94.671 1.146,97.219 3.184,98.87C5.268,100.676 7.904,101.645 10.616,101.602C13.38,101.629 16.044,100.53 18.041,98.541C20.071,96.728 21.235,94.079 21.224,91.295L21.224,49.563C21.197,45.639 22.031,41.76 23.664,38.223C25.282,34.742 27.514,31.609 30.244,28.987C33.025,26.312 36.267,24.209 39.8,22.79C51.291,18.143 64.323,20.753 73.336,29.508C76.08,32.215 78.279,35.464 79.806,39.065C81.377,42.768 82.174,46.777 82.143,50.825L82.143,133.295C82.08,135.989 83.217,138.562 85.223,140.265C87.266,142.089 89.884,143.062 92.575,142.997C95.31,142.904 97.921,141.784 99.926,139.844C101.903,138.047 103.026,135.438 102.999,132.705L102.999,48.935C103.051,42.17 101.6,35.484 98.757,29.401C95.991,23.501 92.143,18.222 87.429,13.86C82.631,9.447 77.09,5.994 71.087,3.676C64.847,1.228 58.231,-0.016 51.562,0.003C44.583,-0.072 37.659,1.285 31.185,3.997" style="fill:white;fill-opacity:0.501961;fill-rule:nonzero;"/>
        </g>
        <g id="Path-Copy-8" transform="matrix(1,0,0,1,4,40)">
            <path d="M31.808,98.935C25.682,96.392 20.096,92.634 15.365,87.872C10.733,83.17 6.992,77.614 4.333,71.49C1.578,65.201 0.104,58.393 0.001,51.488L0.001,9.787C-0.044,7.049 1.162,4.449 3.254,2.771C5.375,0.94 8.061,-0.042 10.823,0.003C13.641,-0.024 16.357,1.089 18.393,3.104C20.455,4.934 21.64,7.605 21.638,10.415L21.638,52.752C21.609,56.729 22.463,60.66 24.134,64.242C25.777,67.769 28.05,70.944 30.834,73.599C33.67,76.308 36.975,78.439 40.576,79.879C52.291,84.587 65.578,81.942 74.766,73.072C77.566,70.329 79.81,67.037 81.369,63.389C82.958,59.644 83.765,55.594 83.737,51.504L83.737,9.787C83.683,7.073 84.841,4.484 86.877,2.771C88.96,0.923 91.629,-0.063 94.372,0.003C97.161,0.09 99.825,1.222 101.866,3.189C103.886,5.012 105.031,7.658 104.999,10.43L104.999,53.403C105.041,60.267 103.546,67.046 100.63,73.211C97.834,79.182 93.939,84.53 89.163,88.957C84.272,93.429 78.623,96.927 72.503,99.276C66.141,101.756 59.396,103.017 52.598,102.997C45.483,103.073 38.423,101.698 31.823,98.95" style="fill:white;fill-opacity:0.501961;fill-rule:nonzero;"/>
        </g>
        <path id="Path-Copy-9" d="M16,31C24.837,31 32,24.057 32,15.5C32,6.943 24.837,0 16,0C7.163,0 0,6.936 0,15.5C0,24.064 7.171,31 16,31" style="fill:white;fill-opacity:0.501961;fill-rule:nonzero;"/>
    </g>
</svg>
