<?xml version="1.0" encoding="utf-8"?>
<svg width="424px" height="594px" viewBox="0 0 424 594" version="1.1" xmlns:xlink="http://www.w3.org/1999/xlink" xmlns="http://www.w3.org/2000/svg">
  <desc>Created with Lunacy</desc>
  <path d="M255.283 227.477C338.42 225.497 381.009 130.19 310.729 50.6185C240.45 -28.9531 178.687 8.12166 106.149 11.9001C33.6108 15.6785 -40.0749 158.805 25.3071 227.946C90.6891 297.087 172.147 229.458 255.283 227.477Z" transform="matrix(0.1736482 -0.9848077 0.9848077 0.1736482 62.17535 547.6494)" id="Oval-Copy-27" fill="#1AC6B9" fill-opacity="0.100864954" stroke="none" />
  <path d="M263.478 233.366C367.669 230.887 413.468 147.911 325.39 48.3032C237.312 -51.3045 190.115 33.2504 99.206 37.9802C8.29735 42.71 -39.9875 226.191 41.9528 312.742C123.893 399.292 159.287 235.845 263.478 233.366Z" transform="matrix(-0.258819 0.9659259 -0.9659259 -0.258819 423.376 88.09319)" id="Oval-Copy-28" fill="#09AE55" fill-opacity="0.136858255" stroke="none" />
</svg>