<?xml version="1.0" encoding="utf-8"?>
<svg width="607px" height="514px" viewBox="0 0 607 514" version="1.1" xmlns:xlink="http://www.w3.org/1999/xlink" xmlns="http://www.w3.org/2000/svg">
  <desc>Created with Lunacy</desc>
  <path d="M103.004 260.322C146.087 337.372 299.335 329.642 322.215 248.892C345.095 168.142 280.619 145.994 241.014 79.1675C201.409 12.3408 20.8517 -59.4254 2.7575 79.6213C-15.3367 218.668 59.9213 183.271 103.004 260.322Z" transform="matrix(0.258819 0.9659258 -0.9659258 0.258819 303.9131 0.6123657)" id="Oval-Copy-16" fill="#2837D0" fill-opacity="0.0733817" stroke="none" />
  <path d="M133.244 342.397C188.975 443.741 387.214 433.574 416.81 327.365C446.407 221.155 363.003 192.024 311.771 104.128C260.538 16.2317 26.9733 -78.1614 3.56704 104.725C-19.8392 287.611 77.5129 241.053 133.244 342.397Z" transform="matrix(0.05233615 0.9986295 -0.9986295 0.05233615 583.9639 69.33429)" id="Oval-Copy-13" fill="#1EB888" fill-opacity="0.194428951" stroke="none" />
</svg>