<?xml version="1.0" encoding="UTF-8" standalone="no"?>
<svg
   xmlns:dc="http://purl.org/dc/elements/1.1/"
   xmlns:cc="http://creativecommons.org/ns#"
   xmlns:rdf="http://www.w3.org/1999/02/22-rdf-syntax-ns#"
   xmlns:svg="http://www.w3.org/2000/svg"
   xmlns="http://www.w3.org/2000/svg"
   xmlns:sodipodi="http://sodipodi.sourceforge.net/DTD/sodipodi-0.dtd"
   xmlns:inkscape="http://www.inkscape.org/namespaces/inkscape"
   sodipodi:docname="drawing.svg"
   inkscape:version="1.0 (4035a4fb49, 2020-05-01)"
   id="svg916"
   version="1.1"
   viewBox="0 0 6.5008201 8.0803747"
   height="8.0803747mm"
   width="6.5008202mm">
  <defs
     id="defs910" />
  <sodipodi:namedview
     inkscape:window-maximized="1"
     inkscape:window-y="-8"
     inkscape:window-x="2552"
     inkscape:window-height="1017"
     inkscape:window-width="1920"
     showgrid="false"
     inkscape:document-rotation="0"
     inkscape:current-layer="layer1"
     inkscape:document-units="mm"
     inkscape:cy="39.019631"
     inkscape:cx="16.953214"
     inkscape:zoom="7.9195959"
     inkscape:pageshadow="2"
     inkscape:pageopacity="0.0"
     borderopacity="1.0"
     bordercolor="#666666"
     pagecolor="#ffffff"
     id="base" />
  <metadata
     id="metadata913">
    <rdf:RDF>
      <cc:Work
         rdf:about="">
        <dc:format>image/svg+xml</dc:format>
        <dc:type
           rdf:resource="http://purl.org/dc/dcmitype/StillImage" />
        <dc:title></dc:title>
      </cc:Work>
    </rdf:RDF>
  </metadata>
  <g
     transform="translate(-0.00963415,-0.02305638)"
     id="layer1"
     inkscape:groupmode="layer"
     inkscape:label="Layer 1">
    <path
       d="m 3.5021342,0.02305638 v 0.99747902 0 2.116667 a 5.3842708,5.3842708 0 0 1 1.00013,0.119062 v -2.090208 a 4.619625,4.619625 0 0 1 1.11654,0.4445 v 4.130146 l -1.1086,0.632354 v -2.092854 a 4.429125,4.429125 0 0 0 -1.00807,-0.145521 v 2.815167 0 1.153583 l 3.00832,-1.730375 v 0 -4.093104 0 -1.277938 a 5.55625,5.55625 0 0 0 -3.00832,-0.97895802 z"
       style="fill:#b56f3a;stroke-width:0.264583"
       id="path2" />
    <path
       d="m 0.00963415,1.0205354 v 0 5.352521 0 l 3.00038005,1.730375 v -3.96875 a 4.4502917,4.4502917 0 0 0 -1.00013,0.145521 v 2.092854 L 0.91451415,5.7407024 v -4.130146 a 4.6646042,4.6646042 0 0 1 1.09537005,-0.4445 v 2.090208 a 5.4107292,5.4107292 0 0 1 1.00013,-0.119062 v -2.116667 0 -0.99747902 A 5.55625,5.55625 0 0 0 0.00963415,1.0020144 Z"
       style="fill:#b56f3a;stroke-width:0.264583"
       id="path4" />
  </g>
</svg>
