<?xml version="1.0" encoding="UTF-8"?> <svg xmlns="http://www.w3.org/2000/svg" viewBox="0 0 188.84 49.93"><g id="Layer_2" data-name="Layer 2"><g id="Layer_1-2" data-name="Layer 1"><g><g><path d="M94,0V3.77h0v8a20.35,20.35,0,0,1,3.78.45V4.32A17.46,17.46,0,0,1,102,6V21.61L97.81,24V16.09A16.74,16.74,0,0,0,94,15.54V26.18h0v4.36L105.37,24h0V8.53h0V3.7A21,21,0,0,0,94,0Z" style="fill: #b56f3a"></path><path d="M80.8,3.77h0V24h0l11.34,6.54v-15a16.82,16.82,0,0,0-3.78.55V24l-4.14-2.39V6a17.63,17.63,0,0,1,4.14-1.68v7.9a20.45,20.45,0,0,1,3.78-.45v-8h0V0A21,21,0,0,0,80.8,3.7Z" style="fill: #b56f3a"></path></g><g><path d="M8.1,47.54a3.9,3.9,0,0,1-2.2.58,4,4,0,0,1-2.27-.6,3.56,3.56,0,0,1-1.32-1.66,6.24,6.24,0,0,1-.43-2.41,5.75,5.75,0,0,1,.44-2.34,3.5,3.5,0,0,1,1.34-1.6,4,4,0,0,1,2.24-.58,3.31,3.31,0,0,1,3.56,2.4l1.78-.7A5.74,5.74,0,0,0,9.14,38a5.74,5.74,0,0,0-3.23-.9A5.93,5.93,0,0,0,2.65,38a5.3,5.3,0,0,0-2,2.3,8.36,8.36,0,0,0,0,6.51,5.35,5.35,0,0,0,2,2.3,6,6,0,0,0,3.25.85A5.79,5.79,0,0,0,9.13,49a5.87,5.87,0,0,0,2.13-2.62l-1.77-.72A3.91,3.91,0,0,1,8.1,47.54Z" style="fill: #fff"></path><path d="M30,37.3,25.15,49.76h2.07l1-2.8h5l1,2.8h2L31.47,37.3Zm-1.17,8,1.91-5.27,1.91,5.27Z" style="fill: #fff"></path><path d="M44.31,37.74a5.47,5.47,0,0,0-2.25-.44H38.32V49.76H40.2V44.5h1.86a5.69,5.69,0,0,0,2.26-.42,3.43,3.43,0,0,0,1.52-1.22,3.31,3.31,0,0,0,.55-1.92A3.36,3.36,0,0,0,45.84,39,3.44,3.44,0,0,0,44.31,37.74Zm-2.25,5H40.2V39.08h1.86a3,3,0,0,1,1.84.48,1.64,1.64,0,0,1,.61,1.38C44.51,42.13,43.7,42.73,42.06,42.73Z" style="fill: #fff"></path><polygon points="48.82 49.76 57.06 49.76 57.06 47.97 50.72 47.97 50.72 44.39 56.55 44.39 56.55 42.65 50.72 42.65 50.72 39.05 57.06 39.05 57.06 37.3 48.82 37.3 48.82 49.76" style="fill: #fff"></polygon><polygon points="61.78 37.3 59.88 37.3 59.88 49.76 67.23 49.76 67.23 47.97 61.78 47.97 61.78 37.3" style="fill: #fff"></polygon><rect x="86.78" y="37.3" width="1.9" height="12.45" style="fill: #fff"></rect><polygon points="94.03 37.3 92.14 37.3 92.14 49.76 99.48 49.76 99.48 47.97 94.03 47.97 94.03 37.3" style="fill: #fff"></polygon><polygon points="103.43 37.3 101.53 37.3 101.53 49.76 108.88 49.76 108.88 47.97 103.43 47.97 103.43 37.3" style="fill: #fff"></polygon><path d="M122.42,38a7.71,7.71,0,0,0-3.53-.74h-3.53V49.76h3.51a7.79,7.79,0,0,0,3.51-.72,5,5,0,0,0,2.2-2.1,6.84,6.84,0,0,0,.75-3.32,7.37,7.37,0,0,0-.73-3.43A4.93,4.93,0,0,0,122.42,38Zm-.2,8.91A5.21,5.21,0,0,1,118.7,48h-1.44v-9h1.6a6.27,6.27,0,0,1,2.62.47A3,3,0,0,1,123,41a5.89,5.89,0,0,1,.48,2.57A4.31,4.31,0,0,1,122.22,47Z" style="fill: #fff"></path><polygon points="127.92 49.76 136.16 49.76 136.16 47.97 129.82 47.97 129.82 44.39 135.65 44.39 135.65 42.65 129.82 42.65 129.82 39.05 136.16 39.05 136.16 37.3 127.92 37.3 127.92 49.76" style="fill: #fff"></polygon><polygon points="146.45 46.61 140.89 37.3 138.99 37.3 138.99 49.76 140.81 49.76 140.81 40.42 146.35 49.76 148.27 49.76 148.27 37.3 146.45 37.3 146.45 46.61" style="fill: #fff"></polygon><path d="M168.21,37.3l-4.87,12.46h2.07l1-2.8h5l1,2.8h2L169.66,37.3Zm-1.18,8L169,40.06l1.9,5.27Z" style="fill: #fff"></path><polygon points="186.28 37.3 182.68 46.58 179.07 37.3 176.51 37.3 176.51 49.76 178.33 49.76 178.33 39.92 181.75 48.7 183.6 48.7 187.02 39.92 187.02 49.76 188.84 49.76 188.84 37.3 186.28 37.3" style="fill: #fff"></polygon><path d="M21.25,42.65a17.64,17.64,0,0,0-2.93-.25,18.47,18.47,0,0,0-2.89.24V37.31H13.54V49.74h1.89V44.37a16.26,16.26,0,0,1,2.89-.26,16.63,16.63,0,0,1,2.93.26v5.37h1.9V37.31h-1.9Z" style="fill: #fff"></path><path d="M81.43,42.65a17.73,17.73,0,0,0-2.93-.25,18.37,18.37,0,0,0-2.89.24V37.31H73.72V49.74h1.89V44.37a16.18,16.18,0,0,1,2.89-.26,16.63,16.63,0,0,1,2.93.26v5.37h1.89V37.31H81.43Z" style="fill: #fff"></path><path d="M159.44,42.65a17.61,17.61,0,0,0-2.92-.25,18.27,18.27,0,0,0-2.89.24V37.31h-1.9V49.74h1.9V44.37a16.18,16.18,0,0,1,2.89-.26,16.52,16.52,0,0,1,2.92.26v5.37h1.9V37.31h-1.9Z" style="fill: #fff"></path></g></g></g></g></svg> 