<svg width="44" height="20" viewBox="0 0 44 20" fill="none" xmlns="http://www.w3.org/2000/svg">
<g clip-path="url(#clip0)">
<path fill-rule="evenodd" clip-rule="evenodd" d="M9.93846 1H36.1538C37.1692 1 38.0923 1.82233 38.0923 2.73604V17.264C38.0923 18.1777 37.2615 19 36.1538 19H9.93846C8.92308 19 8 18.1777 8 17.264V2.73604C8 1.82233 8.83077 1 9.93846 1Z" fill="#099DD9"/>
<path d="M15.2921 13.335L14.646 12.0558H12.9844L12.4306 13.335H8.83057L12.5229 6.1167H15.1075L18.8921 13.335H15.2921Z" fill="white"/>
<path d="M16.2153 13.335V6.1167H19.9076L20.4615 7.85274L21.1076 6.1167H24.7999V13.335H16.2153Z" fill="white"/>
<path d="M23.415 13.335V6.1167H30.4304V8.85782H30.1535V10.5939H30.5227V13.335H23.415Z" fill="white"/>
<path d="M33.4766 13.335L32.3689 11.9644L31.2612 13.335H27.1997L30.3382 9.58878L27.3843 6.1167H31.4459L32.3689 7.30452L33.3843 6.1167H37.3536L34.492 9.58878L37.6305 13.335H33.4766Z" fill="white"/>
<path d="M24.3384 12.4214V7.03052H29.5076V7.94422H25.723V9.13204H29.2307V10.0457H25.723V11.5077H29.5999V12.4214H24.3384Z" fill="#3089C0"/>
<path d="M29.1382 12.4214L31.5382 9.58889L29.4151 7.03052H31.0766L32.4613 8.76656L33.8459 7.03052H35.5074L33.292 9.68026L35.692 12.4214H34.0305L32.4613 10.594L30.892 12.4214H29.1382Z" fill="#3089C0"/>
<path d="M17.323 12.4214H15.8461L15.1999 11.2336H12.4307L11.8768 12.4214H10.3076L13.0768 7.03052H14.5538L17.323 12.4214ZM14.7384 10.2285L13.8153 8.30971L12.8922 10.3199H14.7384V10.2285Z" fill="#099DD9"/>
<path d="M17.1382 12.4214V7.03052H19.2613L20.5536 10.6853L21.8459 7.03052H23.969V12.4214H22.6766V8.12696L21.292 12.33H19.9074L18.5228 8.12696V12.33H17.1382V12.4214Z" fill="#099DD9"/>
</g>
<defs>
<clipPath id="clip0">
<rect width="30" height="18" fill="white" transform="translate(8 1)"/>
</clipPath>
</defs>
</svg>
