<svg width="44" height="20" viewBox="0 0 44 20" fill="none" xmlns="http://www.w3.org/2000/svg">
<g clip-path="url(#clip0)">
<path d="M17.9998 15.8268H15.0088L16.8796 4.21045H19.8705L17.9998 15.8268Z" fill="#00579F"/>
<path d="M28.8429 4.49455C28.2529 4.25951 27.3172 4 26.1602 4C23.2064 4 21.1264 5.58171 21.1137 7.84309C21.0891 9.51153 22.6029 10.4382 23.7351 10.9945C24.8922 11.563 25.2856 11.934 25.2856 12.4407C25.2738 13.2189 24.3505 13.5777 23.4894 13.5777C22.2952 13.5777 21.6554 13.3927 20.683 12.9598L20.2892 12.7742L19.8706 15.3818C20.5721 15.7027 21.8646 15.9875 23.2064 16C26.3448 16 28.388 14.4428 28.4122 12.0329C28.4242 10.7105 27.6248 9.69729 25.9016 8.86931C24.8554 8.3378 24.2148 7.97941 24.2148 7.43559C24.227 6.9412 24.7567 6.43482 25.9376 6.43482C26.9099 6.41002 27.6244 6.64473 28.1656 6.87961L28.4361 7.00296L28.8429 4.49455Z" fill="#00579F"/>
<path d="M32.818 11.7115C33.0644 11.0442 34.0122 8.46136 34.0122 8.46136C33.9998 8.48617 34.258 7.7817 34.4057 7.34924L34.6148 8.35017C34.6148 8.35017 35.1812 11.1307 35.3042 11.7115C34.8367 11.7115 33.4088 11.7115 32.818 11.7115ZM36.5101 4.21045H34.1965C33.4831 4.21045 32.941 4.42036 32.6332 5.17426L28.1904 15.8266H31.3288C31.3288 15.8266 31.8455 14.3929 31.9566 14.0841C32.3009 14.0841 35.3539 14.0841 35.7968 14.0841C35.8827 14.4919 36.1537 15.8266 36.1537 15.8266H38.9231L36.5101 4.21045Z" fill="#00579F"/>
<path d="M12.5106 4.21045L9.58136 12.1317L9.26127 10.5252C8.71972 8.67144 7.02131 6.65742 5.12598 5.656L7.80902 15.8144H10.972L15.6733 4.21045H12.5106Z" fill="#00579F"/>
<path d="M6.8615 4.21045H2.04923L2 4.44516C5.75387 5.40913 8.23999 7.73276 9.26143 10.5256L8.21529 5.18691C8.04307 4.445 7.51378 4.23492 6.8615 4.21045Z" fill="#FAA61A"/>
</g>
<defs>
<clipPath id="clip0">
<rect width="36.9231" height="12" fill="white" transform="translate(2 4)"/>
</clipPath>
</defs>
</svg>
