<svg width="44" height="20" viewBox="0 0 44 20" fill="none" xmlns="http://www.w3.org/2000/svg">
<g clip-path="url(#clip0)">
<path fill-rule="evenodd" clip-rule="evenodd" d="M27.7217 18H28.1341L28.5464 17.9175H28.9588L29.2887 17.8351L29.7011 17.7526L30.1134 17.6701L30.4433 17.5052L30.8557 17.3402L31.1856 17.1753L31.5155 17.0103L31.8454 16.8454L32.1753 16.5979L32.5052 16.433L32.8351 16.1856L33.0825 15.9381L33.4124 15.6082L33.6598 15.3608L33.9072 15.1134L34.1547 14.7835L34.3196 14.4536L34.567 14.1237L34.732 13.7938L34.8969 13.4639L35.0619 13.134L35.2268 12.7216L35.3918 12.3918L35.4743 11.9794L35.5567 11.567L35.6392 11.2371L35.7217 10.8247V10.4124V10V9.58763V9.17526L35.6392 8.76289L35.5567 8.35052L35.4743 8.02062L35.3918 7.60825L35.2268 7.27835L35.0619 6.86598L34.8969 6.53608L34.732 6.20619L34.567 5.87629L34.3196 5.54639L34.1547 5.21649L33.9072 4.8866L33.6598 4.63918L33.4124 4.30928L33.0825 4.06186L32.8351 3.81443L32.5052 3.56701L32.1753 3.40206L31.8454 3.15464L31.5155 2.98969L31.1856 2.82474L30.8557 2.65979L30.4433 2.49485L30.1134 2.3299L29.7011 2.24742L29.2887 2.16495L28.9588 2.08247L28.5464 2H28.1341H27.7217H27.3093H26.8969L26.4846 2.08247L26.0722 2.16495L25.7423 2.24742L25.3299 2.3299L25 2.49485L24.5877 2.65979L24.2578 2.82474L23.9279 2.98969L23.598 3.15464L23.2681 3.40206L22.9382 3.56701L22.6083 3.81443L22.3609 4.06186L22.031 4.30928L21.7835 4.63918L21.5361 4.8866L21.2887 5.21649L21.1237 5.54639L20.8763 5.87629L20.7114 6.20619L20.5464 6.53608L20.3815 6.86598L20.2165 7.27835L20.0516 7.60825L19.9691 8.02062L19.8866 8.35052L19.8042 8.76289V9.17526L19.7217 9.58763V10V10.4124L19.8042 10.8247V11.2371L19.8866 11.567L19.9691 11.9794L20.0516 12.3918L20.2165 12.7216L20.3815 13.134L20.5464 13.4639L20.7114 13.7938L20.8763 14.1237L21.1237 14.4536L21.2887 14.7835L21.5361 15.1134L21.7835 15.3608L22.031 15.6082L22.3609 15.9381L22.6083 16.1856L22.9382 16.433L23.2681 16.5979L23.598 16.8454L23.9279 17.0103L24.2578 17.1753L24.5877 17.3402L25 17.5052L25.3299 17.6701L25.7423 17.7526L26.0722 17.8351L26.4846 17.9175H26.8969L27.3093 18H27.7217Z" fill="#FBB230"/>
<path fill-rule="evenodd" clip-rule="evenodd" d="M17 18H17.4124L17.8247 17.9175H18.2371L18.6495 17.8351L18.9794 17.7526L19.3918 17.6701L19.7216 17.5052L20.134 17.3402L20.4639 17.1753L20.7938 17.0103L21.1237 16.8454L21.4536 16.5979L21.7835 16.433L22.1134 16.1856L22.3608 15.9381L22.6907 15.6082L22.9381 15.3608L23.1856 15.1134L23.433 14.7835L23.5979 14.4536L23.8454 14.1237L24.0103 13.7938L24.1753 13.4639L24.3402 13.134L24.5052 12.7216L24.6701 12.3918L24.7526 11.9794L24.8351 11.567L24.9175 11.2371V10.8247L25 10.4124V10V9.58763L24.9175 9.17526V8.76289L24.8351 8.35052L24.7526 8.02062L24.6701 7.60825L24.5052 7.27835L24.3402 6.86598L24.1753 6.53608L24.0103 6.20619L23.8454 5.87629L23.5979 5.54639L23.433 5.21649L23.1856 4.8866L22.9381 4.63918L22.6907 4.30928L22.3608 4.06186L22.1134 3.81443L21.7835 3.56701L21.4536 3.40206L21.1237 3.15464L20.7938 2.98969L20.4639 2.82474L20.134 2.65979L19.7216 2.49485L19.3918 2.3299L18.9794 2.24742L18.6495 2.16495L18.2371 2.08247L17.8247 2H17.4124H17H16.5876H16.1753L15.7629 2.08247L15.433 2.16495L15.0206 2.24742L14.6082 2.3299L14.2784 2.49485L13.866 2.65979L13.5361 2.82474L13.2062 2.98969L12.8763 3.15464L12.5464 3.40206L12.2165 3.56701L11.8866 3.81443L11.6392 4.06186L11.3093 4.30928L11.0619 4.63918L10.8144 4.8866L10.567 5.21649L10.4021 5.54639L10.1546 5.87629L9.98969 6.20619L9.82474 6.53608L9.65979 6.86598L9.49485 7.27835L9.3299 7.60825L9.24742 8.02062L9.16495 8.35052L9.08247 8.76289L9 9.17526V9.58763V10V10.4124V10.8247L9.08247 11.2371L9.16495 11.567L9.24742 11.9794L9.3299 12.3918L9.49485 12.7216L9.65979 13.134L9.82474 13.4639L9.98969 13.7938L10.1546 14.1237L10.4021 14.4536L10.567 14.7835L10.8144 15.1134L11.0619 15.3608L11.3093 15.6082L11.6392 15.9381L11.8866 16.1856L12.2165 16.433L12.5464 16.5979L12.8763 16.8454L13.2062 17.0103L13.5361 17.1753L13.866 17.3402L14.2784 17.5052L14.6082 17.6701L15.0206 17.7526L15.433 17.8351L15.7629 17.9175H16.1753L16.5876 18H17Z" fill="#EB2230"/>
<path fill-rule="evenodd" clip-rule="evenodd" d="M21.4536 5.05153H25.6598V4.63916H21.7835L21.4536 5.05153Z" fill="#FBB230"/>
<path fill-rule="evenodd" clip-rule="evenodd" d="M20.7939 6.04128H25.6599V5.62891H21.0414L20.7939 6.04128Z" fill="#FBB230"/>
<path fill-rule="evenodd" clip-rule="evenodd" d="M20.2988 7.03098H25.6597V6.53613H20.4638L20.2988 7.03098Z" fill="#FBB230"/>
<path fill-rule="evenodd" clip-rule="evenodd" d="M19.9692 7.93825H25.66V7.52588H20.1342L19.9692 7.93825Z" fill="#FBB230"/>
<path fill-rule="evenodd" clip-rule="evenodd" d="M20.2167 12.6392H25.66V12.2268H20.0518L20.2167 12.6392Z" fill="#FBB230"/>
<path fill-rule="evenodd" clip-rule="evenodd" d="M20.5463 13.6289H25.6597V13.134H20.3813L20.5463 13.6289Z" fill="#FBB230"/>
<path fill-rule="evenodd" clip-rule="evenodd" d="M21.1239 14.5361H25.66V14.1238H20.8765L21.1239 14.5361Z" fill="#FBB230"/>
<path fill-rule="evenodd" clip-rule="evenodd" d="M21.9485 15.5257H25.6598V15.1133H21.5361L21.9485 15.5257Z" fill="#FBB230"/>
<path fill-rule="evenodd" clip-rule="evenodd" d="M19.8042 8.92775H25.6599V8.51538H19.8867L19.8042 8.92775Z" fill="#FBB230"/>
<path fill-rule="evenodd" clip-rule="evenodd" d="M23.3506 11.6494H25.6599V11.2371H23.4331L23.3506 11.6494Z" fill="#FBB230"/>
<path fill-rule="evenodd" clip-rule="evenodd" d="M23.5981 10.7422H25.66V10.2473H23.5981V10.7422Z" fill="#FBB230"/>
<path fill-rule="evenodd" clip-rule="evenodd" d="M19.6392 10.2473H20.2165V10.7422H19.6392V10.2473Z" fill="#FBB230"/>
<path fill-rule="evenodd" clip-rule="evenodd" d="M18.5671 9.75257H18.4846H18.4021L18.3197 9.67009H18.2372H18.1547H18.0722H17.9898H17.9073H17.8248H17.7423V9.75257H17.6599H17.5774L17.4949 9.83504V9.91752V9.99999V10.0825H17.5774V10.1649H17.6599L17.7423 10.2474H17.8248H17.9073L17.9898 10.3299H18.0722L18.1547 10.4124H18.2372L18.3197 10.4948L18.4021 10.5773L18.4846 10.6598V10.7423V10.8247L18.5671 10.9897L18.4846 11.1546V11.3196V11.4021L18.4021 11.4845V11.567L18.3197 11.6495L18.2372 11.7319L18.1547 11.8144L18.0722 11.8969H17.9898L17.9073 11.9794H17.8248H17.7423H17.6599H17.5774H17.4125H17.33H17.2475H17.165H17.0826H16.9176H16.8351H16.7527H16.6702H16.5877H16.5052H16.4228V11.8969H16.3403H16.2578L16.4228 11.3196H16.5052H16.5877H16.6702L16.7527 11.4021H16.8351H16.9176H17.0001H17.0826H17.165H17.2475H17.33H17.4125H17.4949L17.5774 11.3196L17.6599 11.2371V11.1546V11.0722V10.9897H17.5774V10.9072L17.4949 10.8247H17.33H17.2475L17.165 10.7423L17.0826 10.6598H16.9176L16.8351 10.5773L16.7527 10.4948L16.6702 10.4124V10.2474V10.0825V9.91752V9.83504V9.75257V9.67009L16.7527 9.58762V9.50514L16.8351 9.42267V9.3402L16.9176 9.25772H17.0001L17.0826 9.17525H17.165L17.33 9.09277H17.4125H17.5774H17.7423H17.9073H17.9898H18.0722H18.1547H18.2372H18.3197H18.4021H18.4846H18.5671H18.6496H18.732L18.5671 9.75257Z" fill="white"/>
<path d="M18.5671 9.75257H18.4846H18.4021L18.3197 9.67009H18.2372H18.1547H18.0722H17.9898H17.9073H17.8248H17.7423V9.75257H17.6599H17.5774L17.4949 9.83504V9.91752V9.99999V10.0825H17.5774V10.1649H17.6599L17.7423 10.2474H17.8248H17.9073L17.9898 10.3299H18.0722L18.1547 10.4124H18.2372L18.3197 10.4948L18.4021 10.5773L18.4846 10.6598V10.7423V10.8247L18.5671 10.9897L18.4846 11.1546V11.3196V11.4021L18.4021 11.4845V11.567L18.3197 11.6495L18.2372 11.7319L18.1547 11.8144L18.0722 11.8969H17.9898L17.9073 11.9794H17.8248H17.7423H17.6599H17.5774H17.4125H17.33H17.2475H17.165H17.0826H16.9176H16.8351H16.7527H16.6702H16.5877H16.5052H16.4228V11.8969H16.3403H16.2578L16.4228 11.3196H16.5052H16.5877H16.6702L16.7527 11.4021H16.8351H16.9176H17.0001H17.0826H17.165H17.2475H17.33H17.4125H17.4949L17.5774 11.3196L17.6599 11.2371V11.1546V11.0722V10.9897H17.5774V10.9072L17.4949 10.8247H17.33H17.2475L17.165 10.7423L17.0826 10.6598H16.9176L16.8351 10.5773L16.7527 10.4948L16.6702 10.4124V10.2474V10.0825V9.91752V9.83504V9.75257V9.67009L16.7527 9.58762V9.50514L16.8351 9.42267V9.3402L16.9176 9.25772H17.0001L17.0826 9.17525H17.165L17.33 9.09277H17.4125H17.5774H17.7423H17.9073H17.9898H18.0722H18.1547H18.2372H18.3197H18.4021H18.4846H18.5671H18.6496H18.732L18.5671 9.75257Z" stroke="white" stroke-width="0.216" stroke-miterlimit="2.6131"/>
<path fill-rule="evenodd" clip-rule="evenodd" d="M19.2267 8.43311H19.969L19.8041 9.0929H20.2989L20.2164 9.75269H19.7216L19.4742 11.2372V11.3197L19.5566 11.4022H19.6391H19.7216H19.8041H19.8865H19.969H20.0515L19.969 11.897H19.8865L19.8041 11.9795H19.7216H19.6391H19.5566H19.4742H19.3092H19.2267H19.0618H18.9793H18.8968V11.897H18.8144L18.7319 11.8145V11.7321H18.6494V11.6496V11.5671V11.4847V11.4022L19.2267 8.43311Z" fill="white"/>
<path d="M19.2267 8.43311H19.969L19.8041 9.0929H20.2989L20.2164 9.75269H19.7216L19.4742 11.2372V11.3197L19.5566 11.4022H19.6391H19.7216H19.8041H19.8865H19.969H20.0515L19.969 11.897H19.8865L19.8041 11.9795H19.7216H19.6391H19.5566H19.4742H19.3092H19.2267H19.0618H18.9793H18.8968V11.897H18.8144L18.7319 11.8145V11.7321H18.6494V11.6496V11.5671V11.4847V11.4022L19.2267 8.43311Z" stroke="white" stroke-width="0.216" stroke-miterlimit="2.6131"/>
<path fill-rule="evenodd" clip-rule="evenodd" d="M22.6905 9.99999V9.83504V9.67009L22.6081 9.50514L22.5256 9.42267L22.4431 9.3402L22.3606 9.25772L22.2782 9.17525L22.1957 9.09277H22.1132H22.0307H21.9483H21.8658H21.7833H21.5359H21.3709L21.206 9.17525L21.0411 9.25772L20.8761 9.3402L20.6287 9.42267L20.5462 9.50514L20.4637 9.58762L20.3813 9.67009L20.2988 9.75257L20.2163 9.83504V9.91752V9.99999V10.0825V10.1649V10.2474V10.4948V10.6598V10.8247L20.2988 10.9897L20.3813 11.1546L20.4637 11.3196L20.5462 11.4021L20.6287 11.4845L20.7112 11.567L20.7936 11.6495L20.9586 11.7319H21.1235H21.2885H21.4534H21.6184H21.7833H21.8658H21.9483H22.0307H22.1132H22.1957H22.2782H22.3606H22.4431H22.5256H22.6081H22.6905H22.773H22.8555H22.938L23.0204 11.0722L22.938 11.1546L22.8555 11.2371H22.773H22.6905H22.6081H22.5256H22.4431H22.3606H22.2782H22.1957H22.1132H22.0307H21.9483H21.8658H21.7833H21.7008H21.6184H21.5359H21.4534H21.3709H21.2885H21.206V11.1546V11.0722V10.9897V10.9072V10.8247V10.7423V10.6598V10.5773H21.5359H22.938V10.4124V10.1649V9.99999H22.6905ZM21.9483 10.2474H21.206H20.9586V10.1649V10.0825V9.99999V9.91752V9.83504V9.75257H21.0411H21.1235H21.206H21.2885H21.3709H21.4534H21.5359H21.6184H21.7008V9.83504V9.91752V9.99999V10.0825L21.9483 10.2474Z" fill="white"/>
<path fill-rule="evenodd" clip-rule="evenodd" d="M27.3095 9.2578H27.2271L27.1446 9.17533H27.0621H26.9796L26.8972 9.09285H26.8147H26.7322H26.6497H26.5673H26.4848H26.4023H26.3199H26.2374L26.1549 9.17533H26.0724H25.99L25.9075 9.2578L25.825 9.34028L25.7425 9.50523L25.6601 9.5877L25.5776 9.67017V9.83512L25.4951 10.0001L25.4126 10.165V10.2475V10.33V10.4124V10.4949V10.5774V10.6599L25.4951 10.7423V10.8248V10.9073L25.5776 10.9898L25.6601 11.0722L25.7425 11.1547L25.825 11.2372H25.99H26.0724V11.3197H26.1549H26.2374H26.3199H26.4023H26.4848H26.5673L26.6497 11.2372H26.7322H26.8147L26.8972 11.1547H26.9796V11.0722L26.8972 11.8145H26.8147V11.897H26.7322L26.6497 11.9795H26.5673H26.4848H26.4023H26.3199H26.2374H26.0724H25.99H25.825H25.6601H25.5776L25.4126 11.897H25.3302L25.2477 11.8145L25.0827 11.732L25.0003 11.6496L24.9178 11.4846L24.8353 11.4021L24.7528 11.2372L24.6704 11.0722L24.5879 10.9073V10.7423V10.5774V10.33V10.165V10.0001L24.6704 9.9176V9.83512V9.67017L24.7528 9.5877V9.50523L24.8353 9.42275V9.34028L24.9178 9.2578V9.17533L25.0003 9.09285V9.01038H25.0827V8.92791L25.1652 8.84543L25.2477 8.76296H25.3302V8.68048L25.4126 8.59801H25.4951L25.5776 8.51553H25.6601H25.7425V8.43306H25.9075H25.99L26.0724 8.35059H26.1549H26.2374H26.3199H26.4023H26.4848H26.5673H26.6497H26.7322H26.8147H26.8972L26.9796 8.43306H27.0621H27.1446H27.2271L27.3095 8.51553H27.392H27.4745L27.3095 9.2578Z" fill="white"/>
<path d="M27.3095 9.2578H27.2271L27.1446 9.17533H27.0621H26.9796L26.8972 9.09285H26.8147H26.7322H26.6497H26.5673H26.4848H26.4023H26.3199H26.2374L26.1549 9.17533H26.0724H25.99L25.9075 9.2578L25.825 9.34028L25.7425 9.50523L25.6601 9.5877L25.5776 9.67017V9.83512L25.4951 10.0001L25.4126 10.165V10.2475V10.33V10.4124V10.4949V10.5774V10.6599L25.4951 10.7423V10.8248V10.9073L25.5776 10.9898L25.6601 11.0722L25.7425 11.1547L25.825 11.2372H25.99H26.0724V11.3197H26.1549H26.2374H26.3199H26.4023H26.4848H26.5673L26.6497 11.2372H26.7322H26.8147L26.8972 11.1547H26.9796V11.0722L26.8972 11.8145H26.8147V11.897H26.7322L26.6497 11.9795H26.5673H26.4848H26.4023H26.3199H26.2374H26.0724H25.99H25.825H25.6601H25.5776L25.4126 11.897H25.3302L25.2477 11.8145L25.0827 11.732L25.0003 11.6496L24.9178 11.4846L24.8353 11.4021L24.7528 11.2372L24.6704 11.0722L24.5879 10.9073V10.7423V10.5774V10.33V10.165V10.0001L24.6704 9.9176V9.83512V9.67017L24.7528 9.5877V9.50523L24.8353 9.42275V9.34028L24.9178 9.2578V9.17533L25.0003 9.09285V9.01038H25.0827V8.92791L25.1652 8.84543L25.2477 8.76296H25.3302V8.68048L25.4126 8.59801H25.4951L25.5776 8.51553H25.6601H25.7425V8.43306H25.9075H25.99L26.0724 8.35059H26.1549H26.2374H26.3199H26.4023H26.4848H26.5673H26.6497H26.7322H26.8147H26.8972L26.9796 8.43306H27.0621H27.1446H27.2271L27.3095 8.51553H27.392H27.4745L27.3095 9.2578Z" stroke="white" stroke-width="0.216" stroke-miterlimit="2.6131"/>
<path fill-rule="evenodd" clip-rule="evenodd" d="M33.9899 11.9793H33.2476V11.7319V11.6494V11.7319L33.1651 11.8143L33.0826 11.8968H33.0002L32.9177 11.9793H32.8352H32.7527V12.0618H32.6703H32.5878H32.5053H32.3404L32.1754 11.9793H32.0929L31.928 11.8968L31.8455 11.8143L31.763 11.7319L31.6806 11.6494V11.4845L31.5981 11.402L31.5156 11.237V11.1546V10.9896V10.8247V10.7422V10.5772V10.4123L31.5981 10.2473V10.1649L31.6806 9.99992L31.763 9.83497L31.8455 9.75249L31.928 9.67002L32.0105 9.50507L32.0929 9.4226L32.1754 9.34012H32.2579L32.3404 9.25765L32.5053 9.17517H32.5878H32.6703L32.7527 9.0927H32.9177H33.0002H33.0826V9.17517H33.1651H33.2476H33.3301V9.25765H33.4125L33.495 9.34012L33.5775 9.4226V9.50507H33.66L33.8249 8.51538H34.5672L33.9899 11.9793Z" fill="white"/>
<path d="M33.9899 11.9793H33.2476V11.7319V11.6494V11.7319L33.1651 11.8143L33.0826 11.8968H33.0002L32.9177 11.9793H32.8352H32.7527V12.0618H32.6703H32.5878H32.5053H32.3404L32.1754 11.9793H32.0929L31.928 11.8968L31.8455 11.8143L31.763 11.7319L31.6806 11.6494V11.4845L31.5981 11.402L31.5156 11.237V11.1546V10.9896V10.8247V10.7422V10.5772V10.4123L31.5981 10.2473V10.1649L31.6806 9.99992L31.763 9.83497L31.8455 9.75249L31.928 9.67002L32.0105 9.50507L32.0929 9.4226L32.1754 9.34012H32.2579L32.3404 9.25765L32.5053 9.17517H32.5878H32.6703L32.7527 9.0927H32.9177H33.0002H33.0826V9.17517H33.1651H33.2476H33.3301V9.25765H33.4125L33.495 9.34012L33.5775 9.4226V9.50507H33.66L33.8249 8.51538H34.5672L33.9899 11.9793Z" stroke="white" stroke-width="0.216" stroke-miterlimit="2.6131"/>
<path fill-rule="evenodd" clip-rule="evenodd" d="M32.7527 11.3197H32.8352H32.9177H33.0001L33.0826 11.2372L33.1651 11.1547H33.2476V11.0723L33.33 10.9898V10.9073L33.4125 10.8249V10.7424V10.6599V10.5774L33.495 10.495V10.4125V10.33L33.4125 10.2475V10.1651V10.0826V10.0001L33.33 9.91763L33.2476 9.83516L33.1651 9.75269H33.0826H33.0001H32.9177L32.8352 9.83516H32.7527L32.6702 9.91763L32.5878 10.0001V10.0826L32.5053 10.1651L32.4228 10.2475V10.33V10.4125V10.495L32.3403 10.5774V10.6599V10.8249V10.9073L32.4228 11.0723L32.5053 11.1547V11.2372L32.6702 11.3197H32.7527Z" fill="#FBB230"/>
<path fill-rule="evenodd" clip-rule="evenodd" d="M16.1754 11.4021L16.0929 11.9794H15.3507L15.4331 11.8969V11.8144V11.7319V11.6495V11.7319H15.3507L15.2682 11.8144L15.1857 11.8969H15.1032L15.0208 11.9794H14.9383H14.8558L14.7733 12.0618H14.6909H14.6084H14.5259H14.4434H14.361L14.2785 11.9794H14.196H14.1135L14.0311 11.8969H13.9486V11.8144L13.8661 11.7319L13.7836 11.6495V11.567L13.7012 11.4845V11.4021V11.3196V11.2371V11.1546V10.9897L13.7836 10.9072V10.8247L13.8661 10.7423V10.6598L13.9486 10.5773L14.0311 10.4948H14.1135L14.196 10.4124V10.3299H14.2785L14.361 10.2474H14.5259H14.6084H14.6909L14.7733 10.1649H14.8558H14.9383H15.0208H15.1032H15.1857H15.2682H15.3507H15.4331H15.5156H15.5981V10.0825L15.6806 9.99999L15.5981 9.91752V9.83504L15.5156 9.75257H15.4331H15.3507H15.2682L15.1857 9.67009H15.1032H15.0208H14.9383L14.8558 9.75257H14.7733H14.6909H14.6084H14.5259H14.4434H14.361L14.2785 9.83504H14.196H14.1135L14.361 9.17525H14.4434H14.5259L14.6084 9.09277H14.6909H14.7733H14.8558H14.9383H15.0208H15.1032H15.1857H15.2682H15.3507H15.4331H15.5156H15.5981H15.6806H15.763L15.8455 9.17525H15.928L16.0105 9.25772H16.0929L16.1754 9.3402H16.2579L16.3403 9.42267V9.50514L16.4228 9.58762V9.67009V9.75257V9.83504V9.99999L16.1754 11.4021Z" fill="white"/>
<path d="M16.1754 11.4021L16.0929 11.9794H15.3507L15.4331 11.8969V11.8144V11.7319V11.6495V11.7319H15.3507L15.2682 11.8144L15.1857 11.8969H15.1032L15.0208 11.9794H14.9383H14.8558L14.7733 12.0618H14.6909H14.6084H14.5259H14.4434H14.361L14.2785 11.9794H14.196H14.1135L14.0311 11.8969H13.9486V11.8144L13.8661 11.7319L13.7836 11.6495V11.567L13.7012 11.4845V11.4021V11.3196V11.2371V11.1546V10.9897L13.7836 10.9072V10.8247L13.8661 10.7423V10.6598L13.9486 10.5773L14.0311 10.4948H14.1135L14.196 10.4124V10.3299H14.2785L14.361 10.2474H14.5259H14.6084H14.6909L14.7733 10.1649H14.8558H14.9383H15.0208H15.1032H15.1857H15.2682H15.3507H15.4331H15.5156H15.5981V10.0825L15.6806 9.99999L15.5981 9.91752V9.83504L15.5156 9.75257H15.4331H15.3507H15.2682L15.1857 9.67009H15.1032H15.0208H14.9383L14.8558 9.75257H14.7733H14.6909H14.6084H14.5259H14.4434H14.361L14.2785 9.83504H14.196H14.1135L14.361 9.17525H14.4434H14.5259L14.6084 9.09277H14.6909H14.7733H14.8558H14.9383H15.0208H15.1032H15.1857H15.2682H15.3507H15.4331H15.5156H15.5981H15.6806H15.763L15.8455 9.17525H15.928L16.0105 9.25772H16.0929L16.1754 9.3402H16.2579L16.3403 9.42267V9.50514L16.4228 9.58762V9.67009V9.75257V9.83504V9.99999L16.1754 11.4021Z" stroke="white" stroke-width="0.216" stroke-miterlimit="2.6131"/>
<path fill-rule="evenodd" clip-rule="evenodd" d="M15.5156 10.7424V10.6599H15.4331H15.3506H15.2681H15.1857H15.1032H15.0207V10.7424H14.9383H14.8558L14.7733 10.8249H14.6908V10.9073H14.6084V10.9898L14.5259 11.0723V11.1548V11.2372L14.6084 11.3197L14.6908 11.4022H14.7733H14.8558H14.9383H15.0207H15.1032V11.3197H15.1857H15.2681V11.2372H15.3506V11.1548H15.4331V11.0723V10.9898V10.9073L15.5156 10.8249V10.7424Z" fill="#EB2230"/>
<path fill-rule="evenodd" clip-rule="evenodd" d="M10.4845 11.9795H9.74219L10.402 8.43311H11.6391L11.804 10.5774L12.6288 8.43311H13.9484L13.3711 11.9795H12.6288L13.1236 9.34032H13.0412L11.969 11.9795H11.1442V11.897V11.5671L11.0618 11.1548V10.7424V10.2475L10.9793 9.83517V9.50527V9.34032L10.4845 11.9795Z" fill="white"/>
<path fill-rule="evenodd" clip-rule="evenodd" d="M29.5363 11.4021L29.4538 11.9794H28.794V11.8969V11.8144V11.7319H28.7115V11.8144H28.6291L28.5466 11.8969H28.4641L28.3816 11.9794H28.2992H28.2167L28.1342 12.0618H28.0517H27.9693H27.8868H27.8043H27.7219L27.6394 11.9794H27.5569H27.4744L27.392 11.8969L27.3095 11.8144V11.7319H27.227V11.6495L27.1445 11.567V11.4845V11.4021V11.3196V11.2371V11.1546V10.9897V10.9072L27.227 10.8247V10.7423L27.3095 10.6598V10.5773L27.392 10.4948H27.4744L27.5569 10.4124L27.6394 10.3299H27.7219L27.8043 10.2474H27.8868H27.9693H28.0517H28.1342V10.1649H28.2167H28.2992H28.3816H28.4641H28.5466H28.6291H28.7115H28.794H28.8765H28.959H29.0414V10.0825V9.99999V9.91752H28.959V9.83504V9.75257H28.8765H28.794H28.7115L28.6291 9.67009H28.5466H28.4641H28.3816L28.2992 9.75257H28.2167H28.1342H28.0517H27.9693H27.8868H27.8043H27.7219L27.6394 9.83504H27.5569L27.7219 9.17525H27.8043H27.8868L27.9693 9.09277H28.0517H28.1342H28.2167H28.2992H28.3816H28.4641H28.5466H28.6291H28.7115H28.8765H28.959H29.0414H29.1239H29.2064L29.2889 9.17525H29.3713L29.4538 9.25772H29.5363L29.6188 9.3402L29.7012 9.42267L29.7837 9.50514V9.58762L29.8662 9.67009V9.75257V9.83504V9.99999L29.5363 11.4021Z" fill="white"/>
<path fill-rule="evenodd" clip-rule="evenodd" d="M28.8765 10.7424V10.6599H28.794H28.7115H28.629H28.5466H28.4641H28.3816V10.7424H28.2991H28.2167V10.8249H28.1342H28.0517V10.9073L27.9692 10.9898V11.0723V11.1548V11.2372V11.3197H28.0517V11.4022H28.1342H28.2167H28.2991H28.3816H28.4641L28.5466 11.3197H28.629L28.7115 11.2372L28.794 11.1548V11.0723H28.8765V10.9898V10.9073V10.8249V10.7424Z" fill="#FBB230"/>
<path fill-rule="evenodd" clip-rule="evenodd" d="M34.4844 11.6494V11.567V11.4845L34.5668 11.402L34.6493 11.3195H34.7318L34.8143 11.2371L34.8967 11.3195H34.9792H35.0617L35.1442 11.402L35.2266 11.4845V11.567V11.6494H35.1442V11.567L35.0617 11.4845V11.402H34.9792L34.8967 11.3195H34.8143L34.7318 11.402H34.6493L34.5668 11.4845V11.567V11.6494H34.4844Z" fill="white"/>
<path fill-rule="evenodd" clip-rule="evenodd" d="M34.7319 11.6496V11.4846H34.8144H34.8969H34.9794V11.5671V11.6496H34.8144H34.8969V11.5671H34.8144V11.6496H34.7319Z" fill="white"/>
<path fill-rule="evenodd" clip-rule="evenodd" d="M34.4844 11.6494V11.7319V11.8144L34.5668 11.8968L34.6493 11.9793H34.7318V12.0618H34.8143H34.8967L34.9792 11.9793H35.0617L35.1442 11.8968L35.2266 11.8144V11.7319V11.6494H35.1442V11.7319V11.8144H35.0617V11.8968H34.9792V11.9793H34.8967H34.8143H34.7318L34.6493 11.8968L34.5668 11.8144V11.7319V11.6494H34.4844Z" fill="white"/>
<path fill-rule="evenodd" clip-rule="evenodd" d="M34.7319 11.6494V11.8144H34.8144V11.6494L34.8969 11.8144H34.9794L34.8969 11.6494H34.9794H34.8144H34.7319Z" fill="white"/>
<path fill-rule="evenodd" clip-rule="evenodd" d="M29.7837 11.9794H30.526L30.7734 10.4948V10.4124L30.8559 10.3299V10.2474V10.1649L30.9383 10.0825L31.0208 9.99999L31.1033 9.91752H31.1858L31.2682 9.83504H31.3507H31.4332L31.5156 9.75257H31.5981H31.6806L31.7631 9.09277H31.6806H31.5981H31.5156L31.4332 9.17525H31.3507L31.2682 9.25772L31.1858 9.3402L31.1033 9.42267L31.0208 9.50514V9.58762H30.9383L31.0208 9.09277H30.2785L29.7837 11.9794Z" fill="white"/>
<path d="M29.7837 11.9794H30.526L30.7734 10.4948V10.4124L30.8559 10.3299V10.2474V10.1649L30.9383 10.0825L31.0208 9.99999L31.1033 9.91752H31.1858L31.2682 9.83504H31.3507H31.4332L31.5156 9.75257H31.5981H31.6806L31.7631 9.09277H31.6806H31.5981H31.5156L31.4332 9.17525H31.3507L31.2682 9.25772L31.1858 9.3402L31.1033 9.42267L31.0208 9.50514V9.58762H30.9383L31.0208 9.09277H30.2785L29.7837 11.9794Z" stroke="white" stroke-width="0.216" stroke-miterlimit="2.6131"/>
<path fill-rule="evenodd" clip-rule="evenodd" d="M22.6084 11.9794H23.3507H23.4331L23.6806 10.4948V10.4124V10.3299V10.2474L23.763 10.1649V10.0825H23.8455V9.99999H23.928L24.0105 9.91752H24.0929L24.1754 9.83504H24.2579H24.4228H24.5053V9.75257V9.67009V9.58762H24.5878V9.50514V9.42267V9.3402L24.6703 9.25772V9.17525H24.7527V9.09277H24.6703H24.5878H24.5053H24.4228H24.3404L24.2579 9.17525H24.1754L24.0929 9.25772L24.0105 9.3402L23.928 9.42267L23.8455 9.50514V9.58762H23.763L23.928 9.09277H23.1032L22.6084 11.9794Z" fill="white"/>
<path d="M22.6084 11.9794H23.3507H23.4331L23.6806 10.4948V10.4124V10.3299V10.2474L23.763 10.1649V10.0825H23.8455V9.99999H23.928L24.0105 9.91752H24.0929L24.1754 9.83504H24.2579H24.4228H24.5053V9.75257V9.67009V9.58762H24.5878V9.50514V9.42267V9.3402L24.6703 9.25772V9.17525H24.7527V9.09277H24.6703H24.5878H24.5053H24.4228H24.3404L24.2579 9.17525H24.1754L24.0929 9.25772L24.0105 9.3402L23.928 9.42267L23.8455 9.50514V9.58762H23.763L23.928 9.09277H23.1032L22.6084 11.9794Z" stroke="white" stroke-width="0.216" stroke-miterlimit="2.6131"/>
</g>
<defs>
<clipPath id="clip0">
<rect width="26.7217" height="16" fill="white" transform="translate(9 2)"/>
</clipPath>
</defs>
</svg>
